<svg xmlns="http://www.w3.org/2000/svg" viewBox="0 0 2121.000000 1059.000000" preserveAspectRatio="xMidYMid meet">
<g transform="translate(0.000000,1059.000000) scale(0.100000,-0.100000)"
fill="#FFFFFF" stroke="none">
<path d="M3755 8874 c-97 -13 -231 -44 -295 -68 -19 -8 -69 -22 -110 -32 -41
-9 -116 -37 -167 -61 -50 -24 -98 -43 -106 -43 -16 0 -124 -56 -148 -76 -9 -8
-37 -21 -63 -30 -25 -9 -83 -40 -127 -70 -44 -29 -90 -56 -102 -60 -12 -3 -36
-19 -53 -35 -16 -16 -53 -44 -81 -62 -67 -42 -233 -176 -233 -188 0 -5 -25
-25 -55 -45 -30 -20 -55 -40 -55 -44 0 -4 -14 -20 -31 -36 -145 -136 -371
-384 -432 -474 -17 -25 -47 -63 -68 -86 -20 -23 -40 -52 -44 -65 -4 -13 -23
-41 -42 -63 -19 -21 -41 -52 -48 -70 -7 -17 -25 -42 -39 -55 -32 -30 -80 -110
-72 -119 10 -9 76 60 91 95 8 18 31 50 52 71 45 45 147 169 183 222 34 51 162
196 238 272 122 120 152 148 161 148 6 0 22 17 36 38 13 21 39 46 57 56 18 11
48 37 67 58 18 21 50 48 70 59 20 10 61 40 91 66 30 25 56 41 58 35 6 -20 -38
-72 -78 -92 -21 -11 -48 -33 -59 -49 -12 -16 -37 -39 -56 -51 -51 -32 -263
-248 -286 -292 -10 -21 -28 -42 -39 -48 -11 -6 -32 -30 -47 -53 -14 -23 -43
-57 -64 -75 -22 -19 -39 -40 -39 -47 0 -8 -15 -29 -33 -47 -35 -36 -133 -161
-184 -236 -17 -26 -47 -65 -66 -87 -20 -22 -39 -53 -42 -68 -4 -15 -24 -44
-45 -63 -21 -20 -53 -64 -70 -98 -18 -33 -49 -82 -71 -108 -43 -51 -57 -97
-19 -63 19 17 20 17 20 -1 0 -12 -20 -32 -50 -52 -31 -19 -50 -39 -50 -51 0
-10 -7 -24 -15 -31 -9 -7 -13 -20 -10 -30 6 -18 -16 -52 -76 -115 -21 -22 -47
-62 -59 -89 -11 -27 -38 -70 -60 -96 -23 -27 -58 -90 -81 -146 -22 -55 -47
-106 -55 -115 -7 -8 -25 -49 -38 -90 -13 -40 -39 -103 -58 -139 -41 -80 -68
-146 -68 -164 0 -20 -56 -142 -69 -150 -26 -17 5 108 50 196 4 9 18 57 30 108
12 54 38 125 64 174 23 46 46 98 50 117 4 18 27 68 50 111 24 42 49 94 56 115
6 21 34 77 60 124 27 48 49 93 49 101 0 13 32 68 80 138 10 14 28 46 40 70 13
25 38 62 56 83 18 21 35 50 39 64 3 15 21 43 38 64 40 47 71 99 59 99 -15 0
-82 -78 -82 -95 0 -8 -14 -24 -30 -37 -17 -12 -51 -56 -77 -98 -25 -41 -56
-86 -69 -100 -12 -14 -32 -47 -44 -75 -12 -27 -32 -63 -44 -80 -29 -38 -76
-130 -76 -149 0 -8 -11 -27 -23 -43 -24 -29 -61 -95 -97 -173 -11 -25 -34 -67
-50 -95 -16 -27 -37 -70 -46 -95 -9 -25 -36 -86 -60 -136 -24 -50 -44 -98 -44
-107 0 -9 -14 -53 -31 -99 -63 -172 -78 -222 -93 -311 -8 -51 -22 -117 -30
-147 -66 -221 -84 -413 -67 -700 10 -183 23 -255 70 -395 11 -33 27 -87 35
-121 9 -33 29 -85 46 -115 17 -30 41 -77 55 -106 61 -130 258 -338 380 -401
22 -11 52 -32 66 -45 14 -14 44 -34 66 -45 22 -11 59 -37 84 -58 24 -20 69
-48 99 -61 30 -14 71 -33 90 -43 166 -87 524 -104 715 -33 39 14 111 40 162
58 50 17 113 48 140 67 26 20 75 49 108 66 33 16 71 41 83 55 13 14 38 31 55
38 18 7 49 28 70 46 21 19 63 50 93 69 30 19 77 55 104 79 28 25 55 45 61 45
5 0 33 24 62 53 29 28 61 60 72 70 55 50 238 256 255 287 7 13 43 65 81 116
50 67 69 101 69 123 0 17 14 57 32 87 26 46 29 60 20 75 -12 18 -7 49 8 49 5
0 16 24 25 53 10 28 23 59 30 67 8 8 38 61 68 118 45 83 55 109 50 136 -3 22
2 46 17 76 15 29 20 53 16 72 -3 16 -2 37 3 46 5 9 17 37 27 62 19 47 78 134
110 161 29 25 83 32 91 13 8 -22 -15 -92 -42 -128 -12 -17 -32 -60 -44 -96
-24 -71 -41 -101 -77 -140 -12 -14 -31 -58 -42 -100 -19 -72 -79 -211 -142
-332 -17 -31 -30 -65 -30 -76 0 -11 -8 -30 -19 -43 -11 -15 -21 -50 -25 -94
-4 -39 -26 -127 -51 -200 -24 -71 -53 -171 -64 -221 -11 -50 -25 -104 -31
-120 -53 -138 -92 -428 -91 -680 0 -133 25 -361 46 -410 7 -16 24 -42 37 -57
14 -15 35 -49 48 -75 22 -47 72 -88 91 -76 5 3 9 15 9 27 0 20 24 74 81 179
11 20 28 60 38 88 21 59 25 57 36 -15 4 -27 14 -66 22 -85 13 -33 15 -34 28
-16 8 10 20 52 27 93 11 65 16 76 40 89 40 21 47 39 69 196 11 79 26 153 35
165 16 25 39 30 50 12 10 -18 24 11 24 52 0 20 7 42 15 49 8 7 15 18 15 26 0
7 13 29 30 47 22 26 34 54 46 113 9 44 29 107 45 142 16 34 29 68 29 75 0 7 6
21 13 32 8 11 19 42 26 70 7 27 32 90 55 140 24 49 49 113 56 140 7 28 35 96
62 152 26 57 48 110 48 118 0 8 23 60 52 117 57 114 103 207 141 283 14 28 36
75 48 105 13 30 34 73 48 94 13 22 34 81 47 130 12 50 30 116 38 146 17 58 10
125 -20 180 -7 14 -20 41 -28 60 -9 19 -21 43 -28 53 -20 28 15 50 118 75 139
34 272 44 494 41 l205 -4 7 45 c4 25 10 57 13 71 9 36 -24 98 -75 141 -22 19
-40 39 -40 45 0 18 -62 72 -97 84 -36 11 -39 23 -19 70 6 13 -7 20 -61 38 -80
27 -137 37 -293 52 -293 29 -527 9 -785 -66 -44 -13 -120 -31 -170 -40 -49
-10 -135 -35 -190 -56 -55 -21 -136 -45 -180 -54 -85 -17 -180 -47 -225 -70
-15 -8 -65 -24 -111 -36 -102 -26 -193 -56 -232 -76 -16 -8 -63 -23 -105 -34
-43 -11 -108 -32 -147 -45 -142 -51 -179 -59 -270 -59 -49 0 -107 4 -127 9
-34 7 -40 5 -68 -22 -28 -28 -30 -35 -30 -104 0 -40 6 -83 13 -94 66 -114 121
-196 165 -245 28 -32 52 -63 52 -68 0 -5 17 -20 38 -32 20 -13 53 -35 72 -49
50 -38 96 -50 184 -50 76 0 179 26 254 66 15 7 35 14 45 14 30 0 116 30 202
70 83 39 229 79 242 66 4 -4 2 -15 -5 -24 -7 -9 -20 -30 -30 -47 -23 -40 -222
-244 -318 -325 -42 -36 -100 -88 -128 -116 -28 -28 -65 -59 -83 -68 -17 -8
-41 -29 -52 -45 -12 -16 -41 -41 -66 -55 -24 -15 -48 -32 -52 -39 -4 -7 -26
-26 -48 -42 -22 -16 -62 -49 -90 -74 -27 -24 -77 -62 -110 -83 -33 -22 -64
-46 -68 -54 -4 -8 -33 -26 -63 -40 -31 -14 -58 -32 -61 -40 -3 -8 -43 -37 -89
-65 -46 -28 -97 -61 -112 -74 -15 -13 -48 -34 -73 -47 -25 -12 -74 -42 -109
-66 -35 -23 -76 -45 -90 -49 -14 -3 -50 -21 -80 -39 -30 -18 -95 -46 -145 -62
-49 -16 -118 -41 -152 -56 -71 -30 -176 -47 -230 -39 -54 9 -114 73 -137 146
-10 31 -22 59 -27 62 -14 10 -47 135 -60 230 -7 58 -10 164 -6 300 5 214 17
301 67 480 10 39 28 116 39 173 11 56 27 115 35 131 18 34 39 89 72 191 13 41
38 102 55 135 16 33 43 93 60 133 16 40 40 88 53 105 13 18 36 65 52 106 15
40 43 92 61 115 18 22 33 46 33 51 0 21 61 138 90 173 16 20 30 42 30 48 0 6
24 47 54 90 29 44 61 95 71 114 10 19 32 53 50 75 18 22 40 56 50 75 9 19 30
49 45 65 16 17 50 62 76 100 26 39 55 76 66 83 10 7 27 31 38 52 11 21 34 51
53 67 18 15 43 44 55 63 12 20 39 51 62 68 22 18 40 39 40 46 0 15 431 451
487 493 21 15 57 47 80 70 23 24 49 43 57 43 8 0 29 18 46 40 18 22 44 47 59
54 15 8 49 33 76 55 27 22 75 54 108 72 32 17 73 43 90 59 18 15 43 31 57 35
32 10 117 53 152 77 15 11 60 30 100 44 40 14 93 36 118 48 142 69 404 100
489 56 56 -28 73 -77 79 -225 7 -187 -10 -330 -54 -455 -39 -112 -94 -310 -94
-341 0 -58 95 -79 160 -36 19 13 66 40 103 61 126 69 192 149 300 361 34 66
64 301 53 405 -16 140 -36 202 -102 306 -69 108 -185 224 -267 265 -23 12 -62
38 -87 58 -25 21 -59 42 -77 48 -17 6 -62 32 -101 57 -38 26 -94 55 -123 65
-30 10 -90 32 -134 48 -80 31 -206 47 -280 37z M15313 8611 c-84 -21 -192 -43
-240 -50 -93 -13 -326 -67 -355 -82 -10 -5 -73 -18 -140 -29 -68 -12 -141 -27
-163 -34 -104 -35 -229 -67 -320 -82 -55 -9 -161 -33 -235 -55 -74 -21 -189
-47 -255 -59 -66 -11 -165 -29 -220 -40 -176 -37 -336 -28 -406 21 -67 47
-119 32 -144 -39 -19 -58 -19 -100 1 -165 34 -114 101 -217 218 -339 58 -60
87 -81 175 -127 14 -7 43 -25 63 -38 33 -22 55 -27 180 -37 l143 -11 3 -32 c2
-23 -9 -56 -41 -115 -24 -46 -48 -94 -52 -108 -12 -43 -58 -144 -78 -173 -10
-15 -30 -69 -44 -120 -13 -50 -30 -101 -37 -112 -17 -26 -62 -156 -76 -220 -6
-27 -22 -79 -36 -115 -14 -36 -31 -81 -39 -100 -7 -19 -21 -70 -30 -114 -9
-43 -38 -131 -64 -195 -45 -113 -48 -116 -86 -129 -21 -7 -85 -16 -142 -21
-130 -10 -148 -22 -138 -95 8 -62 72 -183 142 -271 61 -76 64 -93 33 -200 -46
-159 -66 -254 -86 -410 -3 -27 -17 -95 -30 -150 -51 -208 -57 -257 -57 -515 0
-240 1 -247 27 -325 15 -44 34 -90 42 -102 27 -43 18 -61 -42 -88 -74 -33
-277 -85 -330 -85 -61 0 -104 -39 -111 -101 -4 -38 -1 -50 20 -74 13 -17 33
-47 43 -67 33 -63 217 -252 276 -282 29 -16 76 -40 103 -54 44 -24 64 -27 161
-30 l112 -4 85 41 c47 23 121 52 165 66 44 14 90 33 103 43 29 22 78 45 144
66 28 10 84 34 125 55 41 22 111 51 155 66 44 15 100 38 125 51 25 13 83 33
129 45 47 11 121 37 165 56 45 19 115 44 156 54 73 18 111 31 198 70 23 10 75
26 115 35 39 8 131 35 204 60 75 25 168 49 215 55 96 12 205 29 231 36 23 6
22 27 -3 44 -20 14 -20 14 2 41 19 23 39 31 118 47 52 11 121 29 154 41 l58
21 32 -21 c35 -25 84 -93 114 -160 24 -54 187 -222 257 -265 17 -10 48 -35 70
-56 44 -41 106 -62 236 -79 201 -26 355 50 560 273 138 151 182 205 204 247
10 19 31 50 46 68 16 18 29 39 29 46 0 7 13 31 28 52 15 21 40 68 56 104 30
68 42 87 51 79 2 -3 9 -55 14 -116 9 -102 41 -272 75 -398 7 -27 21 -81 30
-120 10 -38 28 -83 40 -100 13 -16 32 -48 44 -70 43 -84 193 -226 276 -260 22
-9 82 -15 172 -17 197 -3 223 10 245 128 8 41 7 59 -2 70 -17 21 -33 17 -84
-21 -52 -40 -67 -38 -108 18 -29 39 -31 48 -56 302 -39 393 -38 488 9 905 5
47 12 126 15 175 3 50 13 133 21 185 30 189 45 276 54 325 5 28 14 93 20 145
19 172 62 378 90 430 8 16 16 46 50 195 5 22 12 54 16 70 4 17 13 39 20 50 8
11 14 33 14 50 0 17 6 39 14 50 7 11 16 33 20 49 4 16 22 47 40 70 18 24 42
73 55 116 12 41 27 85 32 98 5 13 9 38 9 56 0 20 12 50 30 77 16 24 30 56 30
71 0 15 6 42 14 60 22 54 38 101 45 140 5 20 18 53 30 74 25 41 51 110 51 135
0 8 16 47 35 86 19 39 35 75 35 79 0 4 6 15 13 23 7 9 21 43 31 76 10 33 33
94 51 135 37 82 41 98 81 303 15 80 24 154 21 176 -8 66 -57 173 -101 224 -69
80 -180 186 -201 193 -11 3 -48 19 -83 36 -73 35 -167 47 -195 26 -11 -8 -21
-37 -28 -77 -10 -66 -40 -164 -63 -211 -7 -14 -21 -59 -30 -100 -10 -41 -36
-119 -58 -172 -38 -93 -50 -128 -67 -208 -4 -19 -26 -74 -49 -122 -23 -48 -42
-92 -42 -99 0 -33 -39 -145 -100 -284 -5 -11 -17 -51 -26 -90 -9 -38 -34 -113
-55 -165 -20 -52 -44 -131 -53 -175 -9 -44 -34 -125 -55 -180 -21 -55 -46
-140 -55 -188 -10 -49 -35 -141 -55 -205 -21 -65 -46 -164 -56 -222 -9 -58
-25 -139 -35 -180 -10 -41 -24 -101 -30 -133 -6 -32 -18 -61 -26 -64 -7 -3
-28 7 -45 21 -17 14 -35 26 -41 26 -5 0 -27 13 -47 29 -45 36 -127 77 -178 90
-21 6 -63 17 -93 26 -111 33 -315 -4 -415 -74 -22 -15 -70 -38 -108 -51 -69
-24 -169 -98 -205 -151 -9 -14 -37 -46 -62 -71 -72 -73 -144 -159 -156 -188
-6 -14 -24 -39 -39 -56 -15 -16 -44 -63 -65 -105 -21 -42 -49 -89 -63 -105
-13 -16 -41 -67 -62 -114 -22 -47 -48 -97 -58 -111 -11 -15 -29 -67 -42 -115
-13 -49 -37 -133 -55 -186 -34 -107 -50 -217 -50 -349 0 -124 -16 -132 -111
-58 -20 16 -41 29 -47 29 -6 0 -29 16 -53 36 -73 61 -130 84 -233 93 -52 5
-105 15 -117 22 -42 22 -217 22 -352 0 -67 -11 -166 -25 -220 -31 -60 -7 -145
-26 -215 -49 -64 -21 -151 -46 -192 -55 -41 -10 -82 -19 -90 -21 -8 -2 -53
-17 -100 -35 -47 -17 -134 -42 -195 -56 -60 -13 -143 -40 -183 -60 -80 -38
-185 -69 -208 -60 -17 6 -18 100 -4 281 7 92 19 152 51 260 48 163 68 247 69
292 0 18 6 47 14 65 22 51 41 126 92 370 14 68 20 80 47 97 44 26 142 59 262
86 55 13 143 39 195 58 52 19 127 42 167 51 39 9 104 30 145 47 40 17 84 35
98 39 54 18 138 40 154 40 9 0 24 5 34 10 31 18 176 67 220 75 23 4 88 22 145
41 56 18 165 45 242 60 170 33 175 37 175 135 0 64 -19 161 -37 193 -16 28
-105 93 -141 104 -20 6 -59 14 -85 18 -40 5 -57 15 -93 52 l-45 45 -97 -6
c-54 -4 -120 -13 -147 -21 -67 -18 -169 -41 -285 -62 -52 -9 -144 -33 -205
-52 -118 -36 -402 -95 -418 -85 -17 10 4 98 48 198 24 55 51 126 60 158 9 32
34 95 54 140 21 45 44 100 50 122 7 22 32 81 56 130 23 50 51 119 61 155 10
36 35 101 55 145 48 105 89 253 89 319 0 68 24 89 125 111 17 3 70 22 120 42
49 20 130 46 180 58 49 13 101 27 115 32 52 20 170 37 181 26 10 -10 -7 -63
-21 -63 -4 0 -44 -42 -89 -92 -45 -51 -111 -123 -146 -159 -100 -102 -83 -116
55 -48 47 23 92 47 100 54 8 7 35 21 60 31 25 9 59 27 76 40 17 13 71 41 120
64 49 23 103 54 119 69 17 15 57 36 90 46 33 10 74 29 90 41 35 25 112 58 171
74 23 5 52 18 65 29 31 24 116 61 141 61 21 0 97 36 99 48 8 46 4 155 -6 187
-7 22 -18 59 -24 82 -9 33 -26 54 -83 103 -39 34 -81 76 -92 93 -25 38 -163
112 -246 133 -86 21 -162 15 -327 -25z m1936 -3151 c10 -5 26 -26 35 -47 10
-21 33 -63 52 -93 48 -76 48 -136 0 -203 -19 -27 -46 -78 -61 -115 -15 -36
-39 -82 -54 -102 -16 -19 -40 -58 -54 -86 -14 -28 -41 -71 -61 -97 -19 -25
-42 -60 -51 -79 -10 -18 -32 -49 -50 -68 -19 -19 -49 -56 -67 -82 -79 -111
-136 -185 -179 -232 -25 -28 -48 -58 -52 -67 -3 -9 -23 -30 -43 -45 -21 -16
-57 -47 -79 -69 -71 -69 -210 -148 -253 -143 -61 7 -55 164 13 363 14 40 36
114 49 163 13 50 32 103 43 119 19 27 54 111 69 163 3 14 31 64 60 112 30 48
54 94 54 101 0 8 23 40 50 71 28 31 50 61 50 65 0 5 19 29 43 54 23 25 71 77
106 116 34 39 84 83 110 98 25 15 61 38 79 52 33 24 122 59 155 60 10 1 26 -3
36 -9z M11150 6425 c-99 -28 -172 -73 -190 -115 -13 -31 -49 -60 -74 -60 -8 0
-23 -12 -33 -26 -10 -14 -31 -38 -48 -52 -16 -15 -48 -46 -70 -68 -22 -23 -70
-61 -107 -84 -37 -22 -70 -49 -73 -59 -3 -9 -27 -43 -54 -74 -26 -32 -61 -81
-76 -110 -16 -29 -42 -67 -58 -86 -16 -19 -35 -48 -42 -66 -8 -17 -34 -64 -60
-105 -25 -41 -52 -95 -59 -120 -18 -58 -42 -115 -67 -162 -27 -51 -46 -175
-54 -356 l-7 -154 -37 -26 c-75 -55 -332 -277 -371 -321 -8 -9 -35 -31 -60
-48 -25 -17 -54 -41 -65 -53 -20 -23 -89 -59 -112 -60 -32 0 -1 195 49 314 17
39 39 112 50 161 11 50 38 146 60 215 46 140 67 223 68 261 0 15 6 49 14 75
51 173 78 340 66 399 -19 95 -59 173 -115 227 -92 88 -122 112 -162 129 -65
28 -183 67 -223 74 -76 14 -286 -60 -368 -129 -24 -20 -50 -36 -57 -36 -16 0
-174 -140 -280 -248 -44 -45 -87 -82 -96 -82 -19 0 -24 17 -35 112 -4 37 -16
73 -34 101 -15 24 -31 53 -34 64 -3 10 -37 47 -75 81 -61 55 -79 64 -156 87
-105 30 -98 30 -226 5 -78 -15 -129 -33 -204 -70 -55 -27 -126 -56 -159 -65
-32 -8 -91 -30 -130 -49 -87 -41 -133 -50 -349 -72 -254 -24 -301 -13 -362 91
-14 25 -30 45 -35 45 -6 0 -34 21 -64 48 -127 110 -207 156 -271 156 -53 -1
-139 -37 -165 -70 -8 -9 -31 -27 -52 -40 -20 -13 -53 -41 -72 -62 -20 -21 -47
-44 -59 -51 -13 -7 -31 -26 -41 -42 -9 -16 -38 -51 -64 -77 -77 -80 -176 -201
-196 -240 -10 -20 -29 -48 -41 -62 -13 -14 -33 -50 -45 -80 -12 -30 -39 -80
-60 -112 -22 -31 -50 -90 -65 -132 -14 -43 -38 -103 -54 -134 -15 -31 -34 -82
-41 -112 -7 -30 -25 -98 -41 -150 -40 -135 -59 -230 -59 -295 0 -57 23 -183
41 -220 5 -11 22 -62 38 -112 19 -59 48 -119 78 -165 26 -40 55 -86 62 -101 8
-15 29 -36 46 -47 16 -10 40 -32 52 -49 31 -42 217 -161 283 -181 30 -10 66
-22 80 -27 83 -34 136 -45 217 -45 91 -1 140 13 299 87 141 65 441 371 570
581 11 19 30 44 42 56 25 27 101 212 109 266 3 20 10 46 16 57 17 33 37 117
49 205 14 102 14 367 0 430 -22 98 -39 149 -60 176 -83 108 -122 168 -118 179
5 14 28 17 227 34 91 8 133 17 195 41 43 18 84 35 89 39 6 5 25 11 43 15 19 3
72 24 119 46 98 46 108 47 123 20 8 -15 3 -43 -24 -127 -19 -59 -42 -142 -51
-183 -20 -99 -41 -173 -54 -196 -17 -33 -48 -136 -61 -209 -7 -38 -30 -115
-51 -170 -21 -55 -48 -146 -59 -203 -22 -108 -35 -152 -69 -241 -25 -67 -51
-212 -51 -289 0 -129 92 -284 188 -317 26 -8 78 -38 116 -67 85 -64 140 -74
196 -36 29 20 39 37 58 98 13 41 39 113 58 160 20 47 46 125 59 173 13 48 30
98 38 110 17 26 77 173 77 190 1 7 9 30 20 52 11 22 19 44 20 49 0 5 11 24 25
42 14 18 25 40 25 49 0 27 58 145 89 180 16 19 32 44 36 57 4 13 20 39 35 58
15 19 44 64 64 100 19 37 50 82 67 100 17 19 38 50 45 68 15 35 183 226 267
306 66 61 208 176 218 176 22 0 20 -15 -20 -155 -11 -38 -21 -79 -21 -90 0
-19 -41 -128 -75 -202 -8 -17 -15 -38 -15 -46 0 -25 -30 -139 -46 -174 -8 -17
-14 -34 -14 -38 0 -3 -11 -30 -24 -58 -13 -29 -31 -92 -40 -142 -9 -49 -29
-142 -46 -205 -52 -199 -38 -319 62 -540 35 -79 129 -191 188 -225 19 -11 59
-35 90 -52 51 -30 62 -33 145 -33 124 0 241 46 314 123 14 15 47 48 74 74 26
25 47 51 47 57 0 6 14 29 30 50 17 22 30 49 30 61 0 12 16 36 35 55 19 18 37
46 40 62 4 16 24 49 46 74 21 25 39 49 39 53 0 5 30 47 68 94 37 47 72 94 79
104 11 17 13 16 38 -12 14 -16 39 -49 55 -72 17 -23 56 -59 87 -80 31 -21 75
-55 97 -76 83 -80 158 -129 215 -143 76 -18 207 -17 281 2 63 16 169 80 261
156 67 57 77 52 60 -27 -5 -22 -14 -64 -20 -93 -6 -29 -22 -76 -36 -105 -25
-54 -107 -147 -129 -147 -20 0 -119 -52 -146 -76 -14 -13 -47 -35 -75 -49 -27
-15 -61 -38 -76 -51 -14 -13 -30 -24 -35 -24 -6 0 -25 -11 -44 -25 -19 -14
-42 -25 -53 -25 -10 0 -37 -15 -60 -34 -23 -19 -58 -40 -77 -48 -19 -8 -66
-38 -103 -67 -38 -28 -80 -58 -95 -65 -15 -8 -44 -33 -65 -55 -20 -23 -43 -41
-50 -41 -7 0 -34 -22 -61 -50 -27 -27 -52 -50 -57 -50 -5 0 -35 -24 -67 -53
-31 -29 -74 -66 -95 -82 -22 -16 -106 -103 -188 -194 -218 -244 -235 -264
-249 -291 -7 -14 -27 -41 -45 -60 -17 -19 -44 -57 -60 -85 -15 -27 -45 -72
-66 -98 -21 -27 -43 -65 -50 -85 -7 -20 -22 -53 -33 -72 -38 -62 -64 -123 -84
-195 -11 -38 -30 -101 -42 -140 -19 -59 -23 -94 -24 -220 l-1 -150 41 -78 c55
-104 126 -177 222 -226 43 -21 100 -50 127 -64 165 -85 213 -102 336 -112 97
-9 197 13 324 70 17 8 48 19 70 24 22 6 63 28 91 49 28 21 76 51 107 66 32 17
66 43 79 62 13 19 26 34 29 34 4 0 9 12 12 28 7 29 120 148 178 186 19 12 47
26 62 29 16 5 34 22 47 45 12 21 34 46 50 57 15 10 36 33 46 49 9 17 32 48 51
69 18 21 53 68 77 105 24 37 53 76 66 87 12 11 36 47 51 80 16 33 45 85 64
115 19 30 41 76 50 102 9 26 21 50 26 54 13 8 74 132 83 169 4 16 27 70 50
120 24 49 49 113 56 140 7 28 25 79 40 115 40 95 55 135 83 230 13 47 38 123
55 170 17 47 39 121 50 165 11 44 34 116 51 160 17 44 40 123 51 175 19 92 28
126 56 200 7 19 18 53 25 75 9 30 39 66 123 148 61 59 136 123 166 142 30 18
61 43 67 54 7 11 27 28 45 37 18 9 54 37 81 62 26 26 71 68 100 95 89 81 139
133 272 284 53 61 73 113 43 113 -36 0 -97 -26 -161 -69 -40 -26 -86 -53 -104
-60 -17 -7 -42 -24 -55 -38 -12 -14 -44 -36 -69 -49 -26 -13 -76 -45 -111 -72
-35 -27 -77 -56 -93 -65 -17 -8 -41 -27 -54 -41 -27 -28 -84 -51 -102 -40 -13
8 -5 117 16 209 36 159 65 299 81 395 18 111 24 287 11 332 -9 33 -86 130
-177 224 -47 48 -70 80 -70 95 0 34 -26 152 -38 175 -6 10 -21 42 -33 69 -14
31 -57 85 -111 141 -74 77 -102 98 -180 137 -160 79 -224 91 -328 62z m418
-525 c38 -38 50 -81 27 -95 -47 -27 -55 -42 -69 -120 -11 -64 -27 -103 -79
-199 -36 -65 -77 -130 -91 -145 -14 -14 -32 -43 -40 -63 -9 -20 -39 -67 -67
-104 -28 -37 -55 -78 -60 -91 -4 -12 -26 -42 -47 -65 -20 -24 -44 -56 -52 -72
-8 -16 -30 -38 -47 -49 -18 -10 -33 -23 -33 -27 0 -13 -175 -190 -188 -190 -6
0 -26 -13 -44 -29 -46 -40 -96 -63 -118 -56 -18 6 -20 16 -20 85 0 103 14 163
60 263 20 45 45 105 54 132 9 28 32 75 51 105 19 30 46 80 60 110 15 30 36 66
49 80 13 14 36 47 52 75 16 27 50 72 76 100 25 27 75 81 110 118 153 166 235
234 309 255 56 17 76 13 107 -18z m-4899 -430 c90 -66 125 -172 123 -370 -2
-149 -22 -250 -69 -345 -22 -44 -46 -98 -53 -120 -7 -22 -20 -49 -30 -60 -10
-11 -38 -51 -64 -89 -49 -75 -108 -142 -227 -264 -150 -152 -260 -213 -410
-229 l-46 -5 -20 49 c-42 98 -40 191 12 428 17 80 39 147 65 200 22 44 51 109
65 145 14 35 38 78 54 95 16 16 32 41 36 55 14 48 58 130 70 130 6 0 25 -17
42 -37 16 -21 47 -44 68 -52 35 -12 40 -12 52 5 16 22 16 57 2 142 -17 99 -1
157 69 244 89 111 178 137 261 78z m4363 -1825 c-2 -20 -11 -60 -22 -89 -10
-28 -24 -76 -30 -106 -7 -30 -24 -86 -37 -125 -14 -38 -39 -115 -55 -170 -37
-121 -52 -161 -89 -242 -16 -35 -29 -67 -29 -73 0 -27 -42 -131 -74 -184 -20
-32 -43 -80 -52 -105 -10 -25 -27 -60 -40 -77 -12 -16 -39 -64 -60 -105 -20
-40 -51 -92 -69 -114 -17 -22 -38 -57 -48 -78 -9 -20 -38 -65 -65 -100 -26
-34 -56 -75 -66 -92 -10 -16 -32 -41 -48 -53 -16 -13 -37 -40 -48 -60 -10 -21
-33 -46 -50 -57 -17 -11 -43 -39 -56 -62 -14 -23 -34 -45 -44 -48 -10 -3 -41
-27 -68 -53 -55 -53 -226 -155 -287 -171 -66 -18 -175 -14 -211 8 -26 16 -33
29 -45 82 -16 77 -16 230 0 318 7 36 30 106 51 156 22 50 44 113 50 140 6 28
26 77 45 110 19 33 46 83 60 112 14 28 32 57 41 64 8 7 33 44 56 82 51 87 156
213 301 357 37 37 67 72 67 77 0 5 13 17 30 26 16 10 54 41 83 70 62 60 157
143 189 165 30 20 160 126 213 174 23 21 56 43 72 50 17 7 50 30 74 51 60 52
240 168 253 164 6 -2 10 -21 8 -42z M20373 6103 c-11 -10 -31 -49 -43 -88 -13
-38 -31 -86 -40 -105 -10 -19 -25 -66 -35 -105 -9 -38 -27 -90 -40 -115 -27
-54 -46 -108 -75 -215 -31 -114 -109 -295 -180 -419 -22 -38 -40 -75 -40 -83
0 -7 -17 -32 -38 -56 -21 -23 -51 -67 -66 -99 -16 -31 -46 -78 -68 -104 -22
-26 -46 -63 -53 -81 -8 -18 -25 -43 -39 -56 -14 -12 -43 -47 -63 -79 -45 -66
-179 -234 -196 -245 -7 -5 -26 -24 -42 -44 -29 -35 -134 -127 -185 -162 -33
-23 -67 -22 -80 2 -23 44 -4 238 40 416 5 22 18 85 29 140 10 55 35 152 54
215 19 63 43 153 52 200 10 46 34 125 55 175 21 49 45 120 54 156 9 36 28 94
42 129 37 91 37 179 0 247 -47 85 -159 183 -210 183 -12 0 -32 6 -47 13 -76
40 -203 60 -254 41 -24 -9 -59 -88 -79 -178 -10 -43 -38 -118 -62 -167 -24
-49 -44 -95 -44 -102 0 -26 -38 -163 -69 -247 -18 -47 -39 -130 -47 -185 -9
-55 -32 -161 -51 -235 -47 -185 -63 -296 -69 -490 -9 -241 10 -331 99 -469 12
-19 37 -48 55 -65 19 -17 52 -50 74 -73 23 -24 46 -43 53 -43 7 0 52 -25 101
-56 49 -31 112 -63 139 -71 55 -17 246 -23 307 -10 65 14 213 126 312 237 83
93 168 197 198 245 14 22 40 54 58 70 17 17 40 47 51 67 10 20 29 44 41 53 21
14 24 14 35 -2 7 -9 13 -37 13 -63 0 -79 20 -210 42 -274 30 -87 122 -266 161
-312 18 -21 41 -52 51 -67 26 -42 93 -68 176 -69 128 -1 159 33 146 161 -22
230 -25 297 -16 450 15 253 29 358 78 591 11 52 28 147 37 210 10 63 33 167
52 230 20 63 44 156 55 205 11 50 39 144 63 210 86 237 82 295 -30 410 -36 37
-79 75 -97 84 -18 10 -64 36 -103 59 -62 36 -80 41 -155 47 -75 6 -88 5 -107
-12z M3976 2955 c-3 -8 -3 -22 1 -31 5 -13 7 -13 14 -2 11 17 11 48 0 48 -5 0
-11 -7 -15 -15z"/>
</g>
</svg>
