<svg xmlns="http://www.w3.org/2000/svg" viewBox="0 0 2142.000000 1050.000000" preserveAspectRatio="xMidYMid meet">
<g transform="translate(0.000000,1050.000000) scale(0.100000,-0.100000)"
fill="#000000" stroke="none">
<path d="M3915 8784 c-185 -29 -331 -69 -478 -130 -70 -30 -133 -54 -139 -54
-12 0 -115 -49 -343 -163 -55 -27 -113 -62 -130 -77 -16 -16 -47 -38 -68 -49
-21 -12 -64 -41 -94 -64 -31 -23 -65 -49 -77 -57 -11 -8 -41 -31 -65 -52 -24
-21 -50 -38 -57 -38 -8 0 -26 -18 -41 -41 -14 -22 -46 -52 -70 -66 -24 -13
-43 -28 -43 -33 0 -4 -32 -38 -72 -76 -137 -131 -227 -226 -248 -260 -12 -18
-33 -43 -48 -54 -29 -23 -52 -52 -135 -175 -30 -44 -62 -86 -71 -94 -10 -8
-28 -36 -41 -61 -13 -26 -34 -54 -47 -62 -13 -9 -32 -33 -43 -54 -11 -22 -34
-57 -51 -79 -17 -22 -43 -60 -57 -85 -15 -25 -40 -59 -57 -75 -16 -16 -30 -37
-30 -47 0 -32 37 -3 64 50 25 48 89 130 150 192 19 19 42 51 52 70 9 19 38 59
63 88 25 29 64 74 87 100 22 26 51 63 64 82 23 34 49 65 148 179 48 55 180
186 265 263 26 24 68 64 95 90 26 25 61 53 79 62 17 8 42 28 55 44 12 16 44
41 69 55 26 15 57 36 70 47 13 11 58 45 99 75 72 53 100 66 100 45 0 -20 -62
-79 -94 -90 -18 -6 -44 -22 -57 -36 -13 -14 -41 -33 -61 -41 -20 -8 -44 -25
-52 -38 -9 -13 -46 -49 -83 -79 -135 -109 -378 -366 -510 -539 -17 -23 -43
-54 -57 -68 -14 -14 -55 -68 -92 -120 -37 -52 -88 -119 -114 -149 -26 -30 -54
-69 -63 -86 -9 -17 -27 -39 -41 -48 -14 -9 -37 -38 -51 -65 -13 -27 -29 -52
-35 -56 -5 -3 -28 -38 -51 -78 -23 -40 -57 -89 -75 -109 -19 -21 -36 -50 -40
-65 -4 -16 -19 -41 -33 -58 -37 -41 -79 -108 -86 -138 -4 -14 -20 -37 -36 -53
-16 -15 -32 -43 -35 -63 -4 -20 -18 -52 -30 -71 -13 -19 -24 -40 -24 -46 0 -7
-11 -19 -24 -28 -14 -8 -27 -26 -31 -38 -17 -61 -60 -157 -97 -215 -15 -23
-30 -54 -34 -70 -3 -15 -21 -64 -39 -108 -19 -44 -39 -102 -46 -130 -6 -27
-25 -79 -40 -114 -16 -35 -29 -69 -29 -76 0 -7 -7 -18 -15 -25 -13 -11 -15 -7
-15 23 0 33 61 202 81 222 5 5 9 18 9 30 0 39 30 135 53 172 13 21 29 65 35
98 7 33 32 101 56 151 25 50 49 109 55 132 6 22 28 65 47 94 20 29 49 80 65
112 16 33 38 69 48 80 10 12 22 32 26 46 4 14 31 59 59 100 50 73 76 121 76
140 0 40 -87 -51 -121 -126 -16 -34 -33 -66 -39 -69 -6 -4 -21 -30 -34 -59
-13 -28 -40 -75 -60 -103 -20 -28 -44 -73 -53 -100 -9 -26 -26 -62 -39 -78
-36 -48 -134 -243 -160 -320 -14 -38 -40 -95 -58 -126 -19 -31 -39 -77 -44
-100 -27 -112 -35 -135 -66 -198 -19 -37 -39 -96 -45 -132 -13 -73 -20 -109
-55 -269 -63 -292 -59 -806 9 -1041 62 -213 93 -287 179 -415 81 -121 223
-272 321 -340 28 -19 68 -48 90 -63 175 -125 331 -202 489 -241 119 -30 136
-32 264 -28 166 5 303 37 462 105 178 77 288 140 429 247 76 58 116 87 196
140 39 25 138 113 221 194 142 138 204 213 267 324 15 25 37 55 50 65 27 22
47 65 47 102 0 16 13 44 30 66 17 21 33 50 36 64 13 63 42 139 72 190 59 97
104 200 97 221 -4 12 4 43 21 78 18 38 28 77 30 116 3 63 25 127 58 164 11 13
34 49 51 80 21 40 40 62 65 74 43 21 79 23 86 3 8 -20 -74 -220 -142 -345 -33
-62 -84 -173 -84 -184 0 -36 -44 -131 -94 -205 -31 -46 -56 -88 -56 -94 0 -10
-3 -21 -33 -122 -9 -27 -18 -72 -21 -100 -2 -27 -12 -75 -22 -105 -9 -30 -29
-95 -44 -145 -46 -150 -60 -201 -60 -224 0 -12 -4 -30 -10 -40 -26 -49 -69
-257 -80 -386 -36 -411 -16 -669 58 -756 15 -18 38 -53 52 -78 40 -73 79 -66
104 19 16 54 42 107 63 132 8 9 25 42 38 74 13 32 28 60 34 62 5 2 12 -14 16
-35 9 -62 26 -127 34 -136 8 -8 31 51 45 116 4 17 16 31 31 37 24 9 28 18 39
90 14 88 28 136 56 195 16 34 30 68 30 74 0 6 5 11 11 11 5 0 9 -8 8 -17 -3
-32 1 -43 15 -43 8 0 15 14 18 34 5 45 -7 77 -25 70 -24 -9 -29 40 -10 108 19
71 28 87 43 72 7 -7 6 -29 -1 -68 -8 -43 -7 -62 1 -70 14 -14 26 4 34 56 4 22
15 56 26 77 21 42 67 177 79 236 11 52 37 118 80 205 4 8 18 49 31 90 12 41
37 104 55 140 18 36 40 90 50 120 10 30 35 90 56 132 22 43 39 83 39 89 0 7
20 53 44 103 24 50 52 111 62 136 11 24 36 71 57 103 20 32 37 62 37 68 0 6
22 57 49 113 62 129 104 271 105 356 1 57 -4 75 -41 150 -24 47 -43 94 -43
103 0 21 29 33 117 47 38 7 93 18 123 26 143 37 263 42 425 18 126 -18 142
-13 170 60 17 43 16 47 -1 97 -14 38 -29 59 -55 76 -20 13 -42 36 -50 51 -7
15 -40 55 -74 88 -33 34 -68 71 -77 82 -23 28 -69 40 -283 74 -102 16 -454 17
-515 1 -25 -6 -76 -19 -115 -28 -38 -9 -95 -22 -125 -30 -99 -26 -186 -45
-202 -45 -8 0 -69 -17 -134 -39 -65 -21 -150 -47 -189 -56 -76 -19 -295 -87
-445 -139 -52 -18 -122 -41 -155 -51 -33 -10 -102 -35 -153 -56 -132 -55 -213
-71 -401 -78 -162 -6 -164 -6 -183 -32 -69 -92 -8 -268 161 -461 47 -53 162
-127 224 -144 86 -23 145 -18 253 22 55 20 133 46 175 59 41 12 93 32 115 42
21 11 71 28 109 37 39 10 94 27 123 37 66 24 72 24 72 -1 0 -20 -66 -113 -118
-166 -57 -58 -295 -279 -316 -293 -11 -8 -43 -34 -71 -59 -27 -24 -70 -61 -95
-83 -25 -22 -72 -63 -105 -90 -33 -28 -85 -73 -115 -99 -74 -66 -220 -180
-230 -180 -4 0 -27 -16 -51 -36 -23 -19 -59 -44 -78 -55 -20 -11 -58 -37 -85
-58 -27 -22 -61 -45 -75 -52 -14 -7 -44 -27 -66 -45 -22 -17 -60 -41 -85 -54
-25 -12 -63 -35 -85 -49 -46 -30 -231 -122 -290 -144 -22 -8 -74 -29 -115 -45
-82 -34 -199 -62 -255 -62 -20 0 -50 6 -68 13 -39 17 -111 107 -132 168 -18
50 -58 222 -74 320 -15 93 -14 318 3 430 34 221 70 391 106 499 21 63 46 142
56 175 10 33 28 82 41 110 13 27 27 63 32 80 23 72 44 123 71 165 16 25 38 70
49 100 12 30 27 64 33 75 12 20 90 172 170 330 22 43 51 93 64 110 40 49 131
186 160 239 14 27 44 72 66 99 22 28 48 67 59 86 48 87 267 363 428 537 36 39
93 102 126 140 75 85 248 257 295 292 19 15 67 54 105 87 108 94 262 216 319
254 82 56 280 162 421 227 119 54 148 65 212 80 37 8 82 19 98 24 73 23 206
41 249 35 52 -8 126 -60 146 -103 18 -39 25 -263 10 -364 -16 -114 -84 -372
-115 -440 -14 -31 -28 -79 -32 -106 -5 -46 -3 -51 21 -67 37 -24 128 -13 182
23 22 15 62 41 88 59 110 73 224 235 265 377 90 307 37 570 -159 784 -51 55
-110 106 -159 137 -9 6 -47 30 -86 54 -65 41 -131 80 -262 153 -108 60 -356
109 -468 92z M15660 8558 c-25 -5 -99 -22 -165 -39 -66 -16 -132 -29 -145 -29
-14 0 -70 -12 -125 -26 -149 -37 -223 -53 -295 -64 -36 -5 -111 -23 -168 -39
-56 -16 -155 -39 -220 -52 -132 -24 -211 -44 -361 -88 -57 -17 -134 -36 -170
-42 -36 -5 -100 -18 -142 -29 -167 -41 -270 -53 -469 -54 l-195 -1 -49 28
c-62 35 -77 34 -122 -5 -36 -32 -36 -32 -32 -102 3 -59 12 -87 51 -168 83
-170 196 -287 366 -379 l114 -61 129 -6 c88 -3 131 -9 139 -18 17 -21 1 -85
-43 -171 -22 -43 -50 -107 -63 -143 -13 -36 -41 -105 -63 -155 -22 -49 -51
-124 -65 -165 -32 -97 -58 -173 -119 -345 -27 -77 -62 -183 -78 -235 -31 -105
-89 -265 -106 -293 -13 -23 -77 -46 -129 -47 -69 -1 -169 -21 -187 -37 -24
-22 -23 -48 10 -145 22 -66 40 -98 89 -156 68 -81 78 -111 62 -192 -5 -30 -21
-122 -34 -205 -13 -82 -32 -175 -41 -205 -55 -188 -85 -446 -87 -750 0 -197
11 -276 53 -375 l21 -50 -38 -32 c-51 -43 -252 -113 -326 -113 -52 0 -84 -15
-102 -49 -20 -40 -19 -70 5 -132 42 -105 231 -302 349 -364 54 -28 166 -55
225 -55 56 0 173 37 301 95 33 15 94 40 135 55 90 34 270 112 322 141 55 30
270 116 373 150 184 60 312 99 371 114 33 8 94 28 135 43 88 35 179 62 204 62
10 0 72 19 139 42 128 44 163 52 291 68 92 12 165 36 165 54 0 17 -43 36 -80
36 -20 0 -30 5 -30 15 0 10 10 15 28 15 16 0 42 7 58 15 16 8 72 21 124 30 60
11 108 25 130 39 51 34 114 26 141 -18 10 -17 19 -38 19 -47 0 -8 34 -64 76
-123 78 -109 160 -187 300 -285 122 -84 298 -113 435 -71 143 43 213 89 364
240 72 72 167 194 212 272 12 21 40 59 61 86 22 26 55 81 74 122 37 80 86 146
99 133 4 -4 12 -78 19 -163 6 -85 15 -168 20 -185 5 -16 21 -86 35 -155 15
-69 33 -140 41 -159 36 -87 115 -202 194 -284 78 -80 91 -90 159 -113 56 -19
102 -27 185 -31 104 -5 114 -3 156 19 52 28 91 88 88 133 -4 39 -29 44 -79 15
-51 -28 -99 -24 -116 10 -50 100 -83 198 -77 228 3 16 -1 79 -10 140 -20 133
-23 601 -6 727 6 44 15 121 20 171 5 49 11 97 14 105 6 16 21 132 41 329 30
289 35 328 60 427 14 56 25 110 25 119 0 9 7 37 15 63 8 25 24 93 36 151 12
58 35 134 51 169 32 70 68 198 61 218 -6 16 36 154 53 174 8 8 14 20 14 25 0
6 11 25 25 44 14 19 25 42 25 52 0 10 14 47 30 81 17 35 30 74 30 86 0 11 9
38 20 58 11 21 20 45 20 55 0 9 5 20 10 23 6 3 10 24 10 45 0 21 5 42 10 45 6
3 10 16 10 28 0 13 8 34 18 47 19 28 28 51 82 210 21 63 57 150 79 193 23 44
41 85 41 92 0 7 14 46 31 86 17 41 40 99 51 129 43 122 94 373 84 420 -11 57
-74 175 -120 225 -25 28 -46 53 -46 57 0 4 -31 32 -68 62 -107 86 -263 138
-322 106 -19 -10 -50 -100 -86 -245 -9 -38 -28 -95 -41 -125 -14 -30 -36 -91
-49 -135 -46 -148 -66 -210 -74 -220 -4 -5 -13 -26 -20 -45 -6 -19 -30 -84
-52 -145 -22 -60 -52 -153 -68 -205 -15 -52 -42 -129 -60 -170 -17 -41 -40
-109 -51 -150 -21 -78 -35 -122 -74 -225 -12 -33 -30 -94 -40 -135 -9 -41 -28
-102 -41 -136 -13 -33 -28 -80 -33 -105 -19 -88 -32 -136 -71 -259 -22 -69
-53 -195 -70 -280 -40 -205 -62 -274 -87 -278 -11 -2 -38 13 -64 35 -52 45
-167 104 -264 135 -104 34 -293 33 -385 -1 -36 -13 -78 -34 -95 -46 -16 -12
-66 -39 -110 -60 -114 -56 -187 -107 -209 -149 -10 -19 -29 -42 -41 -50 -33
-21 -255 -309 -255 -330 0 -5 -24 -46 -53 -90 -52 -78 -157 -292 -157 -318 0
-7 -13 -40 -28 -73 -39 -84 -53 -136 -101 -385 -6 -30 -13 -99 -16 -154 -2
-54 -6 -101 -9 -104 -8 -7 -102 44 -151 83 -22 17 -83 51 -135 75 -79 36 -110
45 -185 51 -49 5 -115 16 -145 25 -97 29 -275 12 -550 -54 -47 -12 -119 -28
-160 -37 -41 -9 -102 -27 -135 -40 -87 -33 -149 -52 -245 -74 -47 -11 -107
-26 -135 -35 -27 -8 -92 -26 -144 -41 -52 -15 -131 -43 -175 -64 -99 -46 -150
-56 -171 -35 -18 18 -21 163 -5 194 6 11 15 52 20 92 5 40 25 129 45 197 22
79 36 149 37 190 1 47 7 74 21 94 10 15 22 54 27 87 5 33 12 65 16 72 9 14 20
69 37 183 7 44 18 90 25 102 6 12 12 33 12 47 0 38 35 110 63 129 13 9 56 23
93 33 38 9 116 33 174 54 58 21 145 48 193 60 49 12 105 29 125 37 20 9 89 30
152 48 63 18 168 51 234 74 65 23 128 41 140 41 22 0 135 36 201 65 41 18 126
40 205 55 92 16 296 72 318 86 20 13 22 22 22 97 0 88 -8 108 -72 190 -36 45
-83 70 -172 93 -47 12 -82 29 -118 58 -73 58 -133 60 -318 11 -74 -20 -198
-47 -275 -61 -77 -13 -192 -40 -255 -58 -160 -46 -256 -66 -317 -66 -49 0 -53
2 -53 24 0 41 56 220 93 297 19 41 45 106 57 144 12 39 37 99 56 135 18 36 47
106 65 155 81 230 98 275 129 340 44 94 59 145 70 239 6 49 16 86 27 98 30 33
184 92 323 123 41 9 120 32 175 50 104 35 186 51 204 41 24 -15 -16 -75 -143
-215 -75 -82 -136 -154 -136 -160 0 -22 47 -10 106 26 61 38 159 88 279 143
39 17 77 38 85 45 8 7 62 37 120 67 58 30 123 66 146 81 39 26 121 59 332 132
124 43 148 66 155 153 4 57 1 76 -24 141 -26 67 -40 87 -127 174 -110 112
-182 153 -317 181 -86 18 -91 18 -155 4z m1792 -3180 c21 -23 38 -46 38 -51 0
-5 14 -33 31 -60 47 -76 44 -116 -19 -257 -28 -63 -66 -133 -84 -155 -18 -22
-41 -57 -51 -79 -10 -22 -28 -54 -41 -71 -13 -16 -33 -50 -46 -75 -12 -25 -37
-63 -55 -85 -17 -22 -38 -51 -45 -65 -7 -13 -34 -47 -60 -75 -26 -27 -78 -93
-115 -145 -81 -115 -156 -195 -261 -276 -79 -62 -207 -134 -237 -134 -50 0
-64 152 -27 291 43 163 113 374 131 395 5 6 25 50 43 97 19 47 43 98 55 113
11 15 21 32 21 39 0 18 120 201 176 269 27 32 73 83 102 113 28 29 52 58 52
63 0 5 19 22 43 37 23 15 54 37 68 50 14 13 50 32 80 42 30 11 74 29 99 40 25
11 49 21 54 21 5 0 26 -19 48 -42z M11324 6361 c-34 -4 -78 -18 -100 -31 -93
-56 -174 -113 -183 -128 -9 -16 -118 -137 -177 -196 -17 -17 -52 -46 -78 -64
-47 -33 -119 -124 -188 -236 -21 -34 -46 -74 -55 -89 -10 -16 -42 -67 -70
-114 -29 -46 -62 -108 -74 -136 -11 -29 -31 -72 -44 -97 -42 -82 -83 -267 -91
-415 -9 -167 -5 -159 -102 -249 -48 -45 -112 -106 -144 -136 -31 -30 -89 -82
-128 -115 -40 -33 -84 -72 -99 -86 -14 -14 -47 -40 -73 -57 -26 -17 -60 -40
-76 -52 -17 -12 -35 -19 -41 -16 -6 4 -11 36 -11 72 0 50 11 98 44 202 24 75
56 187 71 247 15 61 33 135 41 165 8 30 19 78 25 105 6 28 31 115 54 195 68
233 93 449 60 527 -8 19 -15 44 -15 55 0 10 -20 41 -45 67 -45 48 -185 161
-200 161 -4 0 -21 6 -38 14 -125 56 -231 61 -355 17 -45 -16 -101 -41 -123
-57 -23 -16 -65 -43 -94 -60 -92 -55 -157 -109 -282 -233 -67 -66 -126 -121
-132 -121 -17 0 -24 20 -32 99 -12 108 -24 143 -72 200 -93 112 -208 171 -335
171 -77 0 -197 -31 -286 -74 -77 -37 -329 -129 -386 -141 -19 -4 -68 -18 -108
-32 -102 -34 -356 -57 -428 -37 -11 3 -47 37 -80 75 -32 39 -81 87 -107 107
-27 20 -77 58 -110 84 -132 101 -178 111 -276 56 -33 -18 -97 -67 -142 -108
-111 -101 -298 -289 -317 -320 -9 -14 -37 -52 -62 -85 -73 -97 -218 -368 -256
-481 -9 -27 -36 -98 -59 -159 -42 -108 -62 -195 -86 -367 -14 -99 -1 -249 32
-377 21 -81 112 -260 170 -334 70 -89 260 -224 390 -277 188 -76 319 -79 483
-11 55 22 116 54 135 71 20 17 54 43 76 58 74 51 188 170 310 322 28 35 77 95
110 135 105 125 172 304 201 535 3 30 10 61 14 70 62 125 62 392 0 504 -15 28
-36 74 -46 101 -10 28 -35 75 -56 105 -21 31 -38 61 -38 68 0 20 34 31 126 42
83 10 199 33 301 59 24 6 75 27 115 47 84 41 203 84 231 84 18 0 19 -6 15 -62
-3 -38 -15 -89 -32 -128 -15 -36 -32 -85 -37 -110 -28 -128 -42 -189 -55 -225
-8 -22 -30 -98 -48 -170 -19 -71 -46 -163 -60 -204 -15 -40 -35 -110 -47 -155
-11 -44 -37 -133 -58 -196 -21 -63 -45 -149 -54 -190 -9 -41 -21 -98 -28 -127
-13 -64 1 -141 42 -225 35 -70 87 -120 163 -159 32 -16 81 -46 109 -66 38 -28
62 -38 101 -41 62 -5 94 16 115 74 7 22 28 77 46 124 18 47 41 119 51 160 9
41 35 110 56 153 22 43 46 101 55 130 8 29 31 84 50 122 19 39 47 104 63 145
37 98 96 203 168 300 19 24 38 53 42 65 4 11 22 38 40 60 18 22 40 56 50 75
47 92 203 275 372 437 57 55 159 123 184 123 18 0 18 -37 -1 -91 -9 -24 -25
-82 -35 -129 -11 -47 -33 -119 -51 -160 -17 -41 -40 -106 -50 -144 -11 -38
-32 -101 -46 -140 -14 -39 -38 -118 -54 -176 -15 -58 -42 -159 -60 -225 -30
-107 -33 -134 -33 -255 l-1 -135 68 -146 c73 -156 108 -202 212 -271 104 -69
142 -83 235 -82 105 0 141 10 216 61 90 62 155 139 229 272 11 20 44 71 73
115 28 43 52 84 52 91 0 7 17 32 38 56 20 24 50 62 66 84 39 53 118 135 131
135 5 0 27 -25 48 -54 37 -52 91 -102 187 -176 25 -19 59 -48 76 -65 41 -41
108 -80 172 -100 41 -14 75 -17 150 -13 92 4 103 8 202 55 68 33 131 72 178
112 39 34 77 59 82 56 15 -9 12 -47 -10 -117 -12 -34 -30 -96 -40 -137 -20
-74 -42 -111 -66 -111 -7 0 -33 -18 -59 -40 -25 -22 -79 -56 -120 -75 -41 -20
-77 -40 -80 -45 -3 -5 -40 -26 -81 -47 -41 -21 -96 -55 -121 -75 -25 -21 -51
-38 -58 -38 -7 0 -34 -18 -60 -39 -26 -22 -70 -51 -99 -66 -113 -61 -159 -95
-311 -230 -79 -70 -126 -108 -180 -147 -57 -41 -159 -147 -320 -332 -159 -182
-177 -204 -224 -276 -24 -36 -54 -76 -66 -90 -31 -35 -105 -154 -105 -171 0
-8 -21 -52 -46 -99 -49 -91 -67 -136 -90 -215 -86 -300 -89 -407 -14 -560 59
-123 109 -165 327 -274 207 -105 255 -117 413 -108 108 7 145 17 285 80 236
105 387 219 421 316 18 50 23 55 80 82 69 33 180 145 287 290 33 46 80 110
104 142 24 33 43 63 43 69 0 5 18 36 40 68 22 33 66 110 96 172 31 62 79 158
107 213 28 55 65 141 82 190 18 50 46 126 62 170 55 148 86 239 133 400 26 88
57 185 67 215 34 93 44 124 53 155 5 17 24 76 43 132 20 56 38 123 42 150 4
26 18 84 31 129 27 86 44 109 171 221 32 28 83 74 113 101 30 26 107 87 170
134 63 47 136 108 162 134 88 92 115 119 182 182 67 61 156 180 156 208 0 30
-86 4 -147 -43 -21 -17 -58 -41 -83 -53 -25 -13 -63 -37 -85 -55 -22 -18 -63
-44 -92 -59 -28 -14 -54 -30 -58 -36 -4 -6 -27 -21 -53 -34 -26 -13 -73 -45
-106 -70 -61 -48 -123 -73 -151 -62 -23 9 -17 71 27 276 51 235 55 258 78 422
30 225 22 252 -116 394 -153 156 -145 144 -159 231 -23 138 -42 188 -98 253
-92 104 -188 178 -301 231 -70 33 -151 42 -252 30z m409 -521 c35 -41 41 -67
24 -93 -8 -12 -31 -74 -51 -137 -39 -119 -86 -221 -116 -255 -10 -11 -33 -47
-50 -80 -18 -33 -46 -78 -64 -99 -17 -22 -42 -58 -56 -82 -71 -119 -169 -244
-285 -360 -210 -211 -345 -263 -345 -134 0 96 105 392 185 525 25 41 45 77 45
82 0 12 118 192 160 244 19 24 58 67 85 96 28 29 73 78 100 109 137 156 217
212 307 213 28 1 42 -5 61 -29z m-4874 -438 c29 -25 60 -62 69 -81 20 -48 52
-215 52 -271 0 -59 -35 -274 -53 -325 -29 -83 -128 -266 -169 -314 -24 -27
-68 -82 -98 -121 -62 -81 -222 -237 -266 -260 -16 -8 -53 -30 -82 -49 -90 -58
-201 -85 -247 -61 -31 17 -44 49 -54 145 -9 79 5 219 28 277 5 13 16 50 25 83
9 33 24 85 33 115 20 63 134 304 157 329 9 10 16 22 16 28 0 20 48 119 63 132
14 11 23 6 63 -33 49 -47 90 -64 107 -47 11 11 11 15 7 182 -3 124 4 142 88
234 99 109 165 119 261 37z m4368 -1835 c-4 -29 -18 -81 -32 -117 -44 -111
-65 -173 -65 -195 0 -11 -11 -52 -24 -90 -32 -94 -63 -186 -88 -265 -12 -36
-30 -82 -40 -103 -10 -21 -32 -75 -49 -120 -17 -45 -39 -95 -49 -112 -10 -17
-35 -64 -56 -105 -20 -41 -51 -95 -69 -120 -18 -25 -42 -66 -53 -92 -11 -26
-31 -62 -44 -80 -13 -18 -30 -45 -37 -59 -7 -14 -30 -48 -52 -75 -21 -27 -48
-67 -60 -89 -12 -22 -39 -59 -60 -82 -22 -24 -39 -46 -39 -50 0 -12 -152 -166
-250 -254 -188 -169 -420 -241 -509 -158 -47 44 -62 98 -62 231 0 159 5 184
95 413 77 199 104 257 137 302 19 26 45 66 59 89 14 24 39 58 56 76 17 18 39
47 49 63 78 127 429 477 600 600 38 28 84 64 103 82 18 18 48 41 66 52 18 11
41 30 52 42 10 12 73 58 139 102 66 44 135 93 154 110 38 32 86 56 115 57 17
0 18 -5 13 -53z M20583 6050 c-21 -8 -53 -87 -53 -129 0 -9 -11 -40 -25 -69
-14 -30 -32 -82 -40 -115 -9 -34 -22 -78 -29 -97 -8 -19 -25 -64 -39 -100 -14
-36 -40 -110 -57 -164 -18 -55 -43 -123 -56 -150 -12 -28 -34 -79 -48 -113
-13 -35 -33 -75 -44 -90 -10 -16 -33 -57 -51 -93 -18 -36 -43 -76 -56 -90 -13
-14 -26 -35 -29 -47 -4 -12 -36 -61 -71 -108 -36 -48 -65 -92 -65 -99 0 -7
-12 -23 -26 -37 -14 -13 -35 -39 -46 -59 -12 -19 -40 -56 -62 -81 -23 -26 -57
-68 -76 -95 -57 -78 -271 -286 -332 -322 -70 -42 -93 -37 -109 21 -8 32 -8 62
1 122 6 44 16 121 21 170 5 50 13 108 18 130 5 22 17 74 27 115 9 41 22 91 30
110 18 46 37 116 62 220 12 47 53 177 92 290 96 280 106 324 93 416 -14 96
-49 153 -128 205 -68 44 -222 98 -306 106 -51 5 -58 3 -87 -23 -21 -21 -37
-51 -52 -104 -30 -101 -65 -201 -95 -265 -13 -30 -35 -96 -49 -147 -14 -51
-32 -112 -40 -135 -8 -23 -26 -93 -40 -155 -15 -62 -33 -140 -42 -173 -8 -33
-19 -78 -23 -100 -5 -22 -13 -60 -19 -85 -11 -47 -25 -147 -43 -310 -13 -116
-4 -332 17 -414 33 -126 161 -275 327 -378 137 -85 143 -88 215 -104 113 -23
228 -14 302 26 103 55 295 236 389 368 17 23 35 42 40 42 5 0 20 17 32 38 12
20 44 62 69 92 26 30 59 75 74 99 41 65 55 44 66 -100 11 -146 41 -265 85
-339 12 -19 32 -57 45 -85 69 -147 185 -245 290 -245 77 0 116 16 135 56 15
31 15 46 5 117 -6 45 -16 116 -22 157 -20 145 4 481 48 670 8 35 22 114 30
175 16 116 37 220 59 295 30 102 44 159 60 235 9 44 34 127 55 185 50 136 100
329 100 389 0 72 -36 137 -115 205 -71 63 -152 116 -223 147 -50 22 -158 33
-189 19z"/>
</g>
</svg>
