<?xml version="1.0" encoding="UTF-8"?>
<svg version="1.1" xmlns="http://www.w3.org/2000/svg" width="777" height="321">
<path d="M0 0 C5.41478326 2.04653226 10.26383549 4.80284018 15.15625 7.875 C17.34694136 9.1944344 19.52685014 10.26396629 21.85546875 11.3125 C28.4582801 14.58069234 31.37909745 20.02341158 33.88671875 26.70703125 C34.88817565 30.68305358 34.74352589 34.38955273 33.54296875 38.3125 C32.55296875 39.3025 32.55296875 39.3025 31.54296875 40.3125 C30.93507386 42.57654948 30.42248998 44.86649761 29.95703125 47.1640625 C29.81397552 47.85575531 29.6709198 48.54744812 29.52352905 49.26010132 C29.0645194 51.48450395 28.61562672 53.71078753 28.16796875 55.9375 C19.08668747 100.66230913 19.08668747 100.66230913 11.54296875 107.3125 C8.11288368 110.49193305 8.11288368 110.49193305 5.54296875 114.3125 C3.78714289 114.78845941 2.01202888 115.19438956 0.23046875 115.5625 C-3.84272745 116.60853482 -5.16913073 116.99718039 -8.08203125 120.1875 C-9.31039222 122.97922948 -9.92243732 125.33693001 -10.45703125 128.3125 C-6.13259758 127.78811805 -1.80938459 127.25481142 2.51293945 126.71337891 C3.98204026 126.53061067 5.45144159 126.35024083 6.92114258 126.17236328 C9.03941988 125.91555892 11.15644953 125.65001291 13.2734375 125.3828125 C14.54598389 125.22570801 15.81853027 125.06860352 17.12963867 124.90673828 C20.21901199 124.36889874 22.68690501 123.56162926 25.54296875 122.3125 C32.58473179 121.15311094 38.07772118 122.96564111 44.4453125 125.890625 C47.57942634 127.32923463 50.75560375 128.53127801 53.98046875 129.75 C59.07434885 131.90356449 61.827593 133.44355038 64.54296875 138.3125 C65.49947151 141.40063747 65.96562415 144.09198493 65.54296875 147.3125 C63.23046875 150.1875 63.23046875 150.1875 60.54296875 152.3125 C59.88296875 153.3025 59.22296875 154.2925 58.54296875 155.3125 C55.10275171 156.73227211 51.75063043 156.24934042 48.10546875 155.9375 C46.99300781 155.84726563 45.88054687 155.75703125 44.734375 155.6640625 C41.54296875 155.3125 41.54296875 155.3125 39.12890625 154.79296875 C27.60177867 152.65122148 15.73445712 154.45866788 4.42016602 156.8894043 C-1.09911882 158.0425727 -6.19487246 158.48054465 -11.83618164 158.28515625 C-14.80575784 158.31613832 -17.53381893 158.79317766 -20.45703125 159.3125 C-22.88340346 159.59599777 -25.31056345 159.87279733 -27.73828125 160.14453125 C-36.60756797 161.20780643 -45.25301322 163.02040473 -53.95703125 165 C-55.12758057 165.26319534 -55.12758057 165.26319534 -56.32177734 165.53170776 C-69.86740297 168.58509569 -83.23850335 172.04046416 -96.45703125 176.3125 C-97.31603027 176.58916504 -98.1750293 176.86583008 -99.06005859 177.15087891 C-113.84872555 181.97908447 -128.32164154 187.8047802 -142.2890625 194.6640625 C-151.49783923 199.12953783 -159.00154683 202.19791522 -169.45703125 200.3125 C-175.68546512 197.6431712 -179.90937203 191.94613469 -182.53515625 185.78125 C-184.4398841 180.03243502 -185.20026015 175.80543821 -182.40625 170.20703125 C-179.18701654 164.57586437 -179.18701654 164.57586437 -176.75512695 163.69848633 C-173.85934307 163.21211277 -171.1723073 163.37325282 -168.23828125 163.5 C-159.70263856 163.55290688 -152.13506377 161.58352574 -143.95703125 159.3125 C-142.43149657 158.90254705 -140.90552746 158.4942076 -139.37915039 158.08740234 C-136.26469429 157.25458673 -133.15307122 156.41223599 -130.04345703 155.56152344 C-125.65519042 154.36256375 -121.25888132 153.19599898 -116.859375 152.0390625 C-102.0920317 148.18701826 -102.0920317 148.18701826 -87.46508789 143.84130859 C-85.45703125 143.3125 -85.45703125 143.3125 -82.45703125 143.3125 C-82.33632579 130.04831098 -82.5297638 116.84115467 -83.18920898 103.59057617 C-83.46907047 97.360515 -83.51091377 91.47269428 -82.45703125 85.3125 C-79.64271464 82.49818339 -77.70748146 82.34221443 -73.76953125 81.875 C-64.63759713 82.28696695 -56.97544486 87.23488075 -50.45703125 93.3125 C-42.79534918 102.38554456 -42.05141761 115.24739163 -42.625 126.65234375 C-42.85260225 129.21534304 -43.11869942 131.76199851 -43.45703125 134.3125 C-41.73806641 134.00505859 -41.73806641 134.00505859 -39.984375 133.69140625 C-38.4544381 133.41920889 -36.92448956 133.14707695 -35.39453125 132.875 C-34.64236328 132.74029297 -33.89019531 132.60558594 -33.11523438 132.46679688 C-28.57177667 131.6603823 -24.02898818 130.93788056 -19.45703125 130.3125 C-19.78703125 129.6525 -20.11703125 128.9925 -20.45703125 128.3125 C-25.0435854 99.78860611 -20.01645181 69.67508688 -16.45703125 41.3125 C-17.09390869 41.51818604 -17.73078613 41.72387207 -18.38696289 41.93579102 C-21.43052939 42.91747253 -24.47491943 43.8965652 -27.51953125 44.875 C-29.22786133 45.42462402 -29.22786133 45.42462402 -30.97070312 45.98535156 C-36.32584489 47.7006008 -41.68222016 49.39755339 -47.078125 50.98046875 C-55.81485399 53.54687794 -64.44674249 56.25893708 -72.98828125 59.41796875 C-73.72844482 59.69123993 -74.4686084 59.96451111 -75.23120117 60.24606323 C-78.92061745 61.61247477 -82.60272376 62.99566122 -86.27734375 64.40136719 C-87.63924429 64.912319 -89.00122011 65.42307021 -90.36328125 65.93359375 C-91.56275391 66.3917749 -92.76222656 66.84995605 -93.99804688 67.32202148 C-102.09032585 69.63924168 -108.96981725 67.61510618 -116.45703125 64.3125 C-125.08514289 59.06605147 -134.61539276 50.74766424 -138.45703125 41.3125 C-138.74436698 37.01799564 -137.6781605 31.97736326 -135.45703125 28.3125 C-131.45278268 27.10106973 -127.84355184 27.43007704 -123.70703125 27.6875 C-112.94620271 27.95110291 -103.0305958 24.49352124 -92.85116577 21.35754395 C-87.09366376 19.58482617 -81.31480342 17.88402331 -75.5390625 16.171875 C-74.40571976 15.83371765 -73.27237701 15.4955603 -72.10469055 15.14715576 C-62.83784734 12.39173221 -53.53213857 9.87021314 -44.14453125 7.5625 C-42.94634766 7.26472656 -41.74816406 6.96695312 -40.51367188 6.66015625 C-33.26086109 4.89562319 -25.98564485 3.40604904 -18.64770508 2.04980469 C-4.42233611 -1.23741042 -4.42233611 -1.23741042 0 0 Z " fill="#010402" transform="translate(191.45703125,9.6875)"/>
<path d="M0 0 C8.48449509 7.99638539 12.66371049 20.02423821 13.09507751 31.53767395 C13.07267885 37.82339485 12.82150219 44.05493034 12.37890625 50.32421875 C12.24670353 52.31986522 12.11513983 54.3155541 11.98413086 56.3112793 C11.91515594 57.35021332 11.84618103 58.38914734 11.77511597 59.45956421 C10.39859298 80.35793731 9.57747445 101.20610585 9.37915039 122.14916992 C9.02568441 153.6425521 9.02568441 153.6425521 1 165 C-2.31917603 168.17453304 -5.33414625 168.95772357 -9.9375 169.25 C-10.948125 169.1675 -11.95875 169.085 -13 169 C-13.2475 169.61875 -13.495 170.2375 -13.75 170.875 C-15.20628639 173.35068687 -16.37812506 173.95125002 -19 175 C-22.60705125 170.25348277 -24.01538382 166.13259265 -25.125 160.3125 C-25.28967773 159.48089355 -25.45435547 158.64928711 -25.62402344 157.79248047 C-30.10467384 134.23135739 -29.23070329 110.83832994 -28 87 C-29.09828125 87.61617188 -30.1965625 88.23234375 -31.328125 88.8671875 C-31.9459082 89.21378418 -32.56369141 89.56038086 -33.20019531 89.91748047 C-35.21937591 91.08450973 -35.21937591 91.08450973 -37.75 93.125 C-43.29058829 96.32149324 -48.84555604 97.77299493 -55.15625 96.2265625 C-57.83294134 95.25384735 -60.42138711 94.20701029 -63 93 C-63.103125 93.886875 -63.20625 94.77375 -63.3125 95.6875 C-64 99 -64 99 -65.375 101.25 C-67.28660966 104.48503174 -67.97870957 107.55264369 -68.765625 111.20703125 C-72.01461441 118.55838387 -78.70761405 123.77340401 -85 128.5 C-85.73766602 129.05534424 -86.47533203 129.61068848 -87.23535156 130.18286133 C-98.08111304 138.17551403 -108.22714626 144.15214991 -122 145 C-122.72574219 145.06832031 -123.45148438 145.13664063 -124.19921875 145.20703125 C-136.92262403 145.90385061 -150.5520773 138.62129609 -160.46875 131.13671875 C-162.17525091 129.5088067 -163.6020094 127.89666408 -165 126 C-165.4640625 125.37480469 -165.928125 124.74960938 -166.40625 124.10546875 C-171.59810584 116.45351843 -173.57208149 108.54736974 -173.5 99.375 C-173.49033203 98.06740723 -173.49033203 98.06740723 -173.48046875 96.73339844 C-173.08348664 82.48905363 -166.59997726 70.31876676 -160 58 C-159.64921387 57.33323242 -159.29842773 56.66646484 -158.93701172 55.97949219 C-154.07832752 46.77848418 -148.59760756 38.37963761 -142.28515625 30.109375 C-139.54104914 26.37551302 -138.19678601 23.87796835 -137.1875 19.375 C-136 16 -136 16 -133.75390625 14.8125 C-126.68518936 12.72697785 -119.68086425 13.33134622 -113.1328125 16.67578125 C-106.73293934 20.64932887 -101.03975626 25.48665318 -99 33 C-98.98548809 35.55409616 -99.37362909 37.49451636 -100 40 C-98.88625 39.938125 -97.7725 39.87625 -96.625 39.8125 C-87.77308709 39.85933552 -79.6013374 43.12125798 -73 49 C-69.14281895 53.6735553 -66.09337062 58.80424875 -63 64 C-56.51212488 62.87927205 -51.18732999 60.92861248 -45.4375 57.75 C-44.69951172 57.35031006 -43.96152344 56.95062012 -43.20117188 56.53881836 C-34.36141875 52.07780664 -34.36141875 52.07780664 -28 45 C-27.47434432 39.67854741 -27.24761082 34.34062555 -27 29 C-26.93296875 27.7625 -26.8659375 26.525 -26.796875 25.25 C-26.57078012 18.01496375 -27.55825821 12.52530376 -30.09765625 5.765625 C-31.46175719 1.58474418 -31.48511544 -1.63396101 -31 -6 C-29.50160768 -7.97494522 -28.40972967 -8.84697851 -26.0859375 -9.71484375 C-16.53928557 -11.0199104 -7.48585694 -5.28466936 0 0 Z M-112 57 C-116.63686013 61.67973361 -120.17326261 67.074038 -123.5625 72.6875 C-124.03993652 73.47334473 -124.51737305 74.25918945 -125.00927734 75.06884766 C-131.17647854 85.40953365 -137.20137805 96.59411197 -134.3125 108.9375 C-133.17759666 111.19287482 -133.17759666 111.19287482 -130.80859375 111.7578125 C-122.24192097 112.4965242 -112.46813819 106.2448164 -106 101 C-100.76218291 95.76218291 -97.8173772 88.99795341 -97.375 81.625 C-97.77047732 71.87443843 -104.17136759 63.56526917 -111 57 C-111.33 57 -111.66 57 -112 57 Z " fill="#010302" transform="translate(447,57)"/>
<path d="M0 0 C12.41255538 -0.36742442 26.6915628 2.8947672 36.72265625 10.59765625 C40.50155699 14.57034677 42.29803262 18.08311874 42.78515625 23.53515625 C42.61291202 28.38260099 40.52187299 30.99904562 37.375 34.53125 C31.75812533 38.66217899 26.16844708 38.31982492 19.66015625 37.34765625 C18.93957031 37.25162109 18.21898437 37.15558594 17.4765625 37.05664062 C14.29274153 36.62771719 11.13175567 36.15508099 7.96875 35.58984375 C2.22250933 34.94154993 -3.50025025 35.05668396 -9.27734375 35.09765625 C-11.09008789 35.10442383 -11.09008789 35.10442383 -12.93945312 35.11132812 C-15.90630164 35.1230548 -18.87304645 35.13946729 -21.83984375 35.16015625 C-21.42992187 36.19914062 -21.02 37.238125 -20.59765625 38.30859375 C-20.05296251 39.71728446 -19.50871584 41.1261481 -18.96484375 42.53515625 C-18.69542969 43.21449219 -18.42601562 43.89382812 -18.1484375 44.59375 C-14.74152511 53.48496039 -13.49257813 62.04118628 -13.58984375 71.53515625 C-13.59588623 72.50976807 -13.60192871 73.48437988 -13.6081543 74.48852539 C-13.83989991 92.35260068 -14.45736682 110.76172284 -18.83984375 128.16015625 C-19.09765625 129.24554688 -19.35546875 130.3309375 -19.62109375 131.44921875 C-20.83984375 134.16015625 -20.83984375 134.16015625 -23.27734375 135.2265625 C-24.12296875 135.53464844 -24.96859375 135.84273437 -25.83984375 136.16015625 C-27.54063008 138.42954707 -27.54063008 138.42954707 -28.83984375 141.09765625 C-30.9474335 145.16314898 -32.64871463 147.19616619 -36.83984375 149.16015625 C-40.65234375 149.34765625 -40.65234375 149.34765625 -43.83984375 149.16015625 C-44.18015625 150.15015625 -44.18015625 150.15015625 -44.52734375 151.16015625 C-46.24784176 155.09272312 -48.05344087 158.8642397 -50.83984375 162.16015625 C-53.52734375 162.84765625 -53.52734375 162.84765625 -55.83984375 162.16015625 C-58.45335941 158.23988276 -58.14029772 154.97607611 -58.09375 150.42578125 C-58.08863907 149.47906555 -58.08352814 148.53234985 -58.07826233 147.5569458 C-57.85304106 129.23776581 -56.52773868 110.92060629 -55.47338867 92.63476562 C-55.22504717 88.31744974 -54.98661745 83.99966936 -54.75369453 79.68149567 C-54.66458261 78.06616298 -54.57181547 76.45102662 -54.47489738 74.83614349 C-53.79607208 63.51992648 -53.99755948 52.4658915 -54.83984375 41.16015625 C-55.75495728 41.3597998 -56.6700708 41.55944336 -57.61291504 41.76513672 C-60.62068303 42.42063675 -63.62912408 43.07295851 -66.63793945 43.72363281 C-67.97574593 44.01353682 -69.31331383 44.30454409 -70.65063477 44.59667969 C-72.57374888 45.01657984 -74.49780135 45.43217505 -76.421875 45.84765625 C-77.57921143 46.09902344 -78.73654785 46.35039062 -79.92895508 46.609375 C-82.83984375 47.16015625 -82.83984375 47.16015625 -85.83984375 47.16015625 C-85.49050781 47.959375 -85.14117188 48.75859375 -84.78125 49.58203125 C-78.70127999 64.25663309 -79.89644104 75.98371461 -82.83984375 91.16015625 C-82.9805127 91.92118652 -83.12118164 92.6822168 -83.26611328 93.46630859 C-87.59251481 116.43183051 -87.59251481 116.43183051 -95.9765625 122.77734375 C-100.34582685 124.86666039 -104.97386559 125.62815251 -109.703125 126.51953125 C-112.13094681 127.24743395 -113.6574647 128.29939191 -115.65234375 129.84765625 C-116.70421875 130.61078125 -117.75609375 131.37390625 -118.83984375 132.16015625 C-121.0390625 131.8046875 -121.0390625 131.8046875 -122.83984375 131.16015625 C-126.68404963 114.37700647 -121.03265096 93.96615217 -118.27734375 77.22265625 C-118.11782227 76.25261658 -117.95830078 75.2825769 -117.79394531 74.28314209 C-117.33379265 71.50299428 -116.86799541 68.72388618 -116.3984375 65.9453125 C-116.25679672 65.10264328 -116.11515594 64.25997406 -115.96922302 63.39176941 C-115.42482886 60.22448775 -114.85776675 57.21392526 -113.83984375 54.16015625 C-116.79901459 54.88604889 -119.75729177 55.61521245 -122.71484375 56.34765625 C-124.06630493 56.68168457 -124.06630493 56.68168457 -125.44506836 57.02246094 C-130.70396634 58.33522917 -135.92348573 59.73589053 -141.12744141 61.2512207 C-153.56143616 64.8527824 -163.56866888 66.96891218 -175.55859375 60.75 C-182.44690441 56.65764689 -189.20350204 51.77650013 -193.83984375 45.16015625 C-194.71001223 41.6450689 -194.78309724 38.66366923 -193.83984375 35.16015625 C-190.61116865 31.93148115 -187.2252662 32.04152497 -182.80859375 31.87109375 C-164.0501259 30.94691419 -146.12327273 27.62561536 -127.78710938 23.77648926 C-122.15097538 22.59785935 -116.51063118 21.43955727 -110.87109375 20.27734375 C-102.05854186 18.45923721 -93.24705297 16.63610498 -84.4367981 14.80690002 C-18.00639297 1.01549121 -18.00639297 1.01549121 0 0 Z " fill="#010302" transform="translate(725.83984375,146.83984375)"/>
<path d="M0 0 C6.37063816 2.45078874 12.72368834 5.02783729 16.28515625 11.15625 C18.04344946 15.69130134 17.71949899 18.94331894 16.171875 23.3671875 C14.14200291 27.28561146 12.1990399 29.54684656 8.01098633 31.12963867 C6.83818115 31.4104126 5.66537598 31.69118652 4.45703125 31.98046875 C3.80627625 32.14062973 3.15552124 32.30079071 2.48504639 32.46580505 C0.32676164 32.99260589 -1.83615289 33.49657663 -4 34 C-5.53615228 34.36853182 -7.0720363 34.73818345 -8.60766602 35.10888672 C-13.48386488 36.27983657 -18.3663527 37.42307817 -23.25 38.5625 C-26.54742564 39.33230577 -29.84437336 40.1040883 -33.140625 40.87890625 C-33.92038696 41.06192291 -34.70014893 41.24493958 -35.50354004 41.4335022 C-40.69372557 42.66212403 -45.83894324 44.00536815 -50.95996094 45.49975586 C-53 46 -53 46 -56 46 C-55.9175 47.134375 -55.835 48.26875 -55.75 49.4375 C-55.75 61.08679818 -60.0819854 73.18377885 -64 84 C-50.82884257 80.87226396 -37.9648667 77.1398043 -25.1875 72.6875 C-24.54318024 72.46322327 -23.89886047 72.23894653 -23.23501587 72.00787354 C-16.50337518 69.78171474 -16.50337518 69.78171474 -10 67 C-0.6765815 65.35591504 9.6939806 68.89109115 18 73 C22.28427642 76.31026763 24.04778322 80.00079203 25.0625 85.25 C25 89 25 89 23.6875 91.5 C22 93 22 93 20 93 C19.79375 93.763125 19.5875 94.52625 19.375 95.3125 C17.50350922 98.97041379 15.78280692 99.41055009 12 101 C8.7792095 101.92866972 5.52347135 102.6572611 2.25 103.375 C-4.38473918 104.84938648 -10.934039 106.51801599 -17.47265625 108.3671875 C-26.33239068 110.8647975 -35.24806796 113.06400288 -44.20874023 115.16748047 C-46.72566367 115.75896863 -49.2407964 116.35768677 -51.75585938 116.95703125 C-53.38271244 117.34156942 -55.009662 117.7256996 -56.63671875 118.109375 C-57.37532639 118.28539246 -58.11393402 118.46140991 -58.87492371 118.64276123 C-64.50818417 119.95827268 -70.19899924 121.09997412 -76 121.25 C-76.598125 121.27578125 -77.19625 121.3015625 -77.8125 121.328125 C-85.33184212 120.20022368 -89.71465917 115.88008766 -94.8125 110.625 C-95.81313477 109.635 -95.81313477 109.635 -96.83398438 108.625 C-101.29116022 104.10935465 -104.23445563 100.36963876 -104.4375 93.8125 C-104.07708329 79.48063562 -97.4543725 65.51341678 -91.6550293 52.68554688 C-90.87925842 50.99069483 -90.87925842 50.99069483 -91 49 C-91.61746094 48.731875 -92.23492188 48.46375 -92.87109375 48.1875 C-102.38784995 43.78400855 -110.46073123 37.68647533 -115 28 C-116.55559724 23.33320828 -115.70709465 20.14171174 -114.1796875 15.63671875 C-113 14 -113 14 -110.70703125 13.23046875 C-107.91463375 12.99273217 -105.58102707 13.21751117 -102.8125 13.625 C-94.2392648 14.37541507 -86.344944 12.75072361 -78 11 C-77.3693866 10.86791138 -76.73877319 10.73582275 -76.08905029 10.59973145 C-71.61670799 9.65878371 -67.15093119 8.69061927 -62.6892395 7.70040894 C-61.17306306 7.36437611 -59.65621488 7.03135666 -58.13864136 6.70169067 C-10.99575087 -3.60261971 -10.99575087 -3.60261971 0 0 Z " fill="#010302" transform="translate(688,29)"/>
<path d="M0 0 C11.1947571 4.35423234 22.18103714 11.05850226 27.40942383 22.30517578 C29.2680272 27.75005288 29.68324451 32.46929841 29.61791992 38.19775391 C29.61614368 39.05955261 29.61436745 39.92135132 29.61253738 40.80926514 C29.60411473 43.65178754 29.58115193 46.49398939 29.55786133 49.33642578 C29.54848278 51.35103004 29.53990162 53.36563815 29.53207397 55.38024902 C29.5087803 60.64584445 29.47253921 65.91126662 29.43241882 71.17675781 C29.41018238 74.20197587 29.39130283 77.227192 29.37390137 80.25244141 C29.3070619 91.83073029 29.2111775 103.40846276 29.09204102 114.98632812 C29.05218595 118.89417862 29.01763409 122.80202318 28.98754883 126.70996094 C28.30626321 214.31832376 28.30626321 214.31832376 13.40942383 230.30517578 C12.42472584 231.71800333 11.4458339 233.13489026 10.47192383 234.55517578 C7.86026522 238.08226112 5.84959845 239.5158114 1.40942383 240.30517578 C0.41942383 240.30517578 -0.57057617 240.30517578 -1.59057617 240.30517578 C-1.85870117 240.88267578 -2.12682617 241.46017578 -2.40307617 242.05517578 C-3.61304083 244.3477404 -5.02713897 246.24143867 -6.59057617 248.30517578 C-7.06495117 249.21267578 -7.53932617 250.12017578 -8.02807617 251.05517578 C-8.54370117 251.79767578 -9.05932617 252.54017578 -9.59057617 253.30517578 C-10.91057617 253.30517578 -12.23057617 253.30517578 -13.59057617 253.30517578 C-17.48424323 239.69279215 -15.70174856 225.23178024 -14.73386133 211.27235222 C-13.54962046 193.85310885 -13.2768412 176.49152973 -13.2889936 159.03736496 C-13.29009064 155.89584882 -13.28511454 152.75435161 -13.28038818 149.6128397 C-13.26945498 142.19907158 -13.26876752 134.78535422 -13.27490234 127.37158203 C-13.28098102 119.78843104 -13.26849576 112.20546375 -13.24733227 104.62234402 C-13.22962475 98.02867444 -13.2237277 91.435063 -13.22697002 84.84137058 C-13.22876234 80.93837482 -13.22635265 77.03551141 -13.21225548 73.13253784 C-12.63278856 42.12127338 -12.63278856 42.12127338 -22.40307617 13.11767578 C-24.05758758 9.19909613 -24.17313211 5.29960785 -22.59057617 1.30517578 C-15.88681589 -3.91670065 -7.61650485 -2.66670877 0 0 Z " fill="#010402" transform="translate(485.590576171875,18.69482421875)"/>
<path d="M0 0 C2.13835482 1.55728014 3.37432426 2.8698042 5 5 C5 5.66 5 6.32 5 7 C5.56847656 7.12117187 6.13695312 7.24234375 6.72265625 7.3671875 C11.54245464 8.41322054 16.2732934 9.59204484 21 11 C21.33 10.67 21.66 10.34 22 10 C27.83921964 9.14844714 30.95871078 10.67870444 35.671875 14.109375 C47.91455669 24.05141852 54.95986725 35.59950217 59 50.75 C59.88998833 61.06962662 54.43403227 74.92126403 48.44140625 83.13671875 C46.70388259 85.17921192 44.87863757 87.08699711 43 89 C42.36578125 89.71800781 41.7315625 90.43601562 41.078125 91.17578125 C28.75048696 104.59251514 9.04779032 114.27737912 -9.11328125 115.28515625 C-28.35446615 115.90915917 -46.15436767 110.109667 -60.8125 97.375 C-62.24365401 95.95131288 -63.64385246 94.49530956 -65 93 C-65.58910156 92.35546875 -66.17820312 91.7109375 -66.78515625 91.046875 C-74.38117517 81.86446392 -76.05764727 71.64750788 -75 60 C-71.92063614 38.77331709 -55.66104235 18.69125053 -39.21484375 5.8203125 C-36.83173269 4.14135276 -36.83173269 4.14135276 -35.875 1.4375 C-28.42704971 -8.24483538 -9.32563307 -4.80177464 0 0 Z M-17.9375 36.5625 C-26.70914306 45.6109602 -34.87296487 56.90095471 -35.5625 69.8125 C-35.39909121 73.54981719 -35.13119642 74.80320537 -33 78 C-26.0800848 82.6132768 -19.63286883 84.09269185 -11.40234375 82.49609375 C0.69539953 79.51844948 12.76441995 73.47098222 20.125 63.0625 C22.86854986 58.07333993 22.89088941 53.51366783 21.51171875 48.07421875 C18.43064606 40.4426387 10.55033448 32.69350444 3.578125 28.56640625 C-6.21374187 24.71960141 -11.13382338 30.16622916 -17.9375 36.5625 Z " fill="#020302" transform="translate(161,194)"/>
<path d="M0 0 C0.66 0 1.32 0 2 0 C2.6760663 21.23348966 3.25784613 48.35507695 -12 65 C-12.99 65.99 -12.99 65.99 -14 67 C-14 66.34 -14 65.68 -14 65 C-14.99 64.67 -15.98 64.34 -17 64 C-15.25 60.125 -15.25 60.125 -13 59 C-11.00657255 55.02052816 -10.44869513 51.07216994 -9.875 46.6875 C-9.62363281 44.80611328 -9.62363281 44.80611328 -9.3671875 42.88671875 C-9.24601562 41.93410156 -9.12484375 40.98148438 -9 40 C-8.34 40 -7.68 40 -7 40 C-7 34.72 -7 29.44 -7 24 C-5.68 23.34 -4.36 22.68 -3 22 C-2.34 23.65 -1.68 25.3 -1 27 C-1 25.02 -1 23.04 -1 21 C-1.33 21 -1.66 21 -2 21 C-2.22424141 13.63740707 -1.90120099 7.12950371 0 0 Z " fill="#011C02" transform="translate(511,184)"/>
<path d="M0 0 C-2.25680824 2.25680824 -2.94368788 2.34623861 -5.9921875 2.78125 C-6.77980469 2.90113281 -7.56742188 3.02101562 -8.37890625 3.14453125 C-9.61447266 3.32048828 -9.61447266 3.32048828 -10.875 3.5 C-12.49830184 3.73336567 -14.12075111 3.9727572 -15.7421875 4.21875 C-16.4626123 4.32123047 -17.18303711 4.42371094 -17.92529297 4.52929688 C-20.18190411 5.04126984 -21.97743497 5.89046559 -24 7 C-23.33613281 6.855625 -22.67226562 6.71125 -21.98828125 6.5625 C-21.10527344 6.376875 -20.22226563 6.19125 -19.3125 6 C-18.44238281 5.814375 -17.57226562 5.62875 -16.67578125 5.4375 C-14.06287036 5.01027953 -11.64186962 4.92383799 -9 5 C-9 5.66 -9 6.32 -9 7 C-15.23852757 9.52699851 -20.20391281 11.2384592 -27 11 C-28.75415624 11.31072011 -30.5037849 11.64737565 -32.25 12 C-40.77322155 13.54374676 -49.37409996 13.16241234 -58 13 C-58 12.34 -58 11.68 -58 11 C-55.69 10.34 -53.38 9.68 -51 9 C-51 8.01 -51 7.02 -51 6 C-50.34 6 -49.68 6 -49 6 C-49 5.34 -49 4.68 -49 4 C-43.06 4.33 -37.12 4.66 -31 5 C-31 4.67 -31 4.34 -31 4 C-26.959592 3.32555232 -22.91749334 2.66182413 -18.875 2 C-17.73289063 1.80921875 -16.59078125 1.6184375 -15.4140625 1.421875 C-14.30546875 1.24140625 -13.196875 1.0609375 -12.0546875 0.875 C-11.03874512 0.70742187 -10.02280273 0.53984375 -8.97607422 0.3671875 C-5.9524414 -0.00586777 -3.04327403 -0.0634842 0 0 Z " fill="#2F2E2E" transform="translate(194,158)"/>
<path d="M0 0 C-1.75 5.75 -1.75 5.75 -4 8 C-4.66 7.34 -5.32 6.68 -6 6 C-8.52297773 6.13247138 -10.88559987 6.3783835 -13.375 6.75 C-14.08873779 6.84853271 -14.80247559 6.94706543 -15.5378418 7.04858398 C-17.69426767 7.35148122 -19.84724689 7.67209056 -22 8 C-23.19496094 8.18175781 -24.38992187 8.36351562 -25.62109375 8.55078125 C-31.38489468 9.46267631 -31.38489468 9.46267631 -37 11 C-38.98216144 10.9386673 -40.96263447 10.80564283 -42.9375 10.625 C-43.97777344 10.53476563 -45.01804688 10.44453125 -46.08984375 10.3515625 C-48.48493056 10.06222315 -50.68513301 9.65820314 -53 9 C-53 9.66 -53 10.32 -53 11 C-53.99 11.495 -53.99 11.495 -55 12 C-53.68 12.66 -52.36 13.32 -51 14 C-54.82320557 15.42258812 -57.91281305 16.24042276 -62 16 C-62.33 16.66 -62.66 17.32 -63 18 C-63.66 17.34 -64.32 16.68 -65 16 C-63.68 15.67 -62.36 15.34 -61 15 C-61 14.34 -61 13.68 -61 13 C-56.61538462 10 -56.61538462 10 -54 10 C-54 9.34 -54 8.68 -54 8 C-52.37191406 8.03480469 -52.37191406 8.03480469 -50.7109375 8.0703125 C-49.26563193 8.0890827 -47.82031885 8.10728156 -46.375 8.125 C-45.66214844 8.14175781 -44.94929688 8.15851563 -44.21484375 8.17578125 C-39.71855983 8.21703156 -36.25609396 7.62319499 -32 6 C-31.34 6 -30.68 6 -30 6 C-30 5.34 -30 4.68 -30 4 C-26.45198238 2.41171775 -23.49726293 1.72190619 -19.625 1.5 C-16.21312189 1.25302759 -13.55874007 0.86762202 -10.25 -0.125 C-6.47883649 -1.14031325 -3.79449844 -0.77438744 0 0 Z " fill="#141612" transform="translate(198,153)"/>
<path d="M0 0 C0.33 0 0.66 0 1 0 C1.59495717 11.23772827 2.08082263 22.43574206 1.98046875 33.69042969 C1.94329838 40.49570519 2.38963682 47.22060892 3 54 C4.485 53.505 4.485 53.505 6 53 C6.3721042 51.67696283 6.70630173 50.34262065 7 49 C7.99 48.505 7.99 48.505 9 48 C10.09874918 50.70461336 10.24720163 52.40028663 9.12890625 55.11328125 C7.89275068 57.28136719 6.68092083 59.15410816 5 61 C2.3125 61.6875 2.3125 61.6875 0 61 C-2.64193027 57.03710459 -2.29700558 53.6631711 -2.25 49.0625 C-2.24613281 48.13550293 -2.24226562 47.20850586 -2.23828125 46.25341797 C-2.061558 30.82204215 -0.95654512 15.39885003 0 0 Z " fill="#030B07" transform="translate(670,248)"/>
<path d="M0 0 C0.33 0 0.66 0 1 0 C1.77699559 9.83113928 2.27611799 19.64214769 2.5625 29.5 C2.58268188 30.18856079 2.60286377 30.87712158 2.62365723 31.58654785 C2.7621092 36.39074797 2.88387035 41.19521035 3 46 C3.03013184 47.17111328 3.06026367 48.34222656 3.09130859 49.54882812 C3.16300873 52.61594985 3.21199448 55.68229919 3.25 58.75 C3.2713501 59.64138672 3.2927002 60.53277344 3.31469727 61.45117188 C3.31912842 62.26650391 3.32355957 63.08183594 3.328125 63.921875 C3.3374707 64.61893555 3.34681641 65.31599609 3.35644531 66.03417969 C3 68 3 68 0 72 C0 48.24 0 24.48 0 0 Z " fill="#001E00" transform="translate(473,138)"/>
<path d="M0 0 C5.15240933 3.82088782 9.20335111 7.67531033 11 14 C11.01932825 16.55616133 10.62689787 18.49240852 10 21 C11.11375 20.938125 12.2275 20.87625 13.375 20.8125 C20.38499313 20.8125 27.25216355 22.97651448 33 27 C30.10765685 27.82638376 28.11257569 28 25 28 C25 27.34 25 26.68 25 26 C24.505 26.185625 24.01 26.37125 23.5 26.5625 C20.55665854 27.07758476 17.97694258 26.68694105 15.0390625 26.2578125 C12.35120442 25.91796837 9.70497675 25.93237558 7 26 C7.16757812 25.44570312 7.33515625 24.89140625 7.5078125 24.3203125 C7.71148437 23.59585938 7.91515625 22.87140625 8.125 22.125 C8.33382813 21.40570313 8.54265625 20.68640625 8.7578125 19.9453125 C8.83773438 19.30335937 8.91765625 18.66140625 9 18 C8.34 17.34 7.68 16.68 7 16 C6.835 14.824375 6.67 13.64875 6.5 12.4375 C6.335 11.303125 6.17 10.16875 6 9 C5.34 8.67 4.68 8.34 4 8 C4 7.34 4 6.68 4 6 C3.01 5.67 2.02 5.34 1 5 C0.67 3.35 0.34 1.7 0 0 Z " fill="#041308" transform="translate(337,76)"/>
<path d="M0 0 C2.02514153 1.554076 3.38774171 2.99857591 5 5 C4.67 5.66 4.34 6.32 4 7 C3.4121875 6.01 3.4121875 6.01 2.8125 5 C1.14583333 2.70833333 1.14583333 2.70833333 -1.6875 2.75 C-2.8321875 2.87375 -2.8321875 2.87375 -4 3 C-4.495 1.515 -4.495 1.515 -5 0 C-11.91762204 -2.7964855 -19.79732042 -2.92071455 -27 -1 C-27.33 -0.01 -27.66 0.98 -28 2 C-29.33333333 2.66666667 -30.66666667 3.33333333 -32 4 C-33.70586575 5.62652316 -35.3777546 7.29006566 -37 9 C-38 10 -38 10 -41 11 C-41.33 11.99 -41.66 12.98 -42 14 C-43.98 14.33 -45.96 14.66 -48 15 C-45.27944413 11.67175983 -42.69611899 8.55041967 -39.3125 5.875 C-36.83716078 4.16057315 -36.83716078 4.16057315 -35.875 1.4375 C-28.43917245 -8.22907582 -9.3098603 -4.82448059 0 0 Z " fill="#021505" transform="translate(161,194)"/>
<path d="M0 0 C0.66 0 1.32 0 2 0 C2.83324695 6.18983446 3.10827661 12.32467582 3.125 18.5625 C3.13176758 19.63467773 3.13176758 19.63467773 3.13867188 20.72851562 C3.12377977 25.87622023 3.12377977 25.87622023 2 27 C1.84344973 28.48638992 1.74933057 29.97949127 1.68359375 31.47265625 C1.64169922 32.37177734 1.59980469 33.27089844 1.55664062 34.19726562 C1.51732422 35.14279297 1.47800781 36.08832031 1.4375 37.0625 C1.39431641 38.01189453 1.35113281 38.96128906 1.30664062 39.93945312 C1.20020724 42.29281353 1.09818992 44.64628354 1 47 C1.66 47 2.32 47 3 47 C2.67 53.27 2.34 59.54 2 66 C1.67 66 1.34 66 1 66 C-1.61109243 45.60084037 -1.14681424 25.62250912 -0.09179688 5.11865234 C-0.01792738 3.4137601 0 1.7064918 0 0 Z " fill="#022005" transform="translate(419,141)"/>
<path d="M0 0 C0.66 0 1.32 0 2 0 C5.56724688 10.70174064 1.51574216 22.77377606 -2 33 C-2.66 33 -3.32 33 -4 33 C-4.75612577 27.76528314 -5.2063366 23.22745859 -4 18 C-3.34 18 -2.68 18 -2 18 C-2.02320313 16.86820313 -2.04640625 15.73640625 -2.0703125 14.5703125 C-2.08906901 13.08854825 -2.10726934 11.60677688 -2.125 10.125 C-2.14175781 9.37863281 -2.15851563 8.63226563 -2.17578125 7.86328125 C-2.1933959 5.90805539 -2.10320189 3.95257979 -2 2 C-1.34 1.34 -0.68 0.68 0 0 Z " fill="#161A13" transform="translate(506,206)"/>
<path d="M0 0 C0 0.66 0 1.32 0 2 C-6.23852757 4.52699851 -11.20391281 6.2384592 -18 6 C-19.81690432 6.30842512 -21.62909438 6.6451247 -23.4375 7 C-30.9583189 8.35699655 -38.39078104 8.17381465 -46 8 C-46 7.67 -46 7.34 -46 7 C-42.06451086 6.17755754 -38.12630061 5.36892111 -34.1875 4.5625 C-33.08728516 4.33240234 -31.98707031 4.10230469 -30.85351562 3.86523438 C-24.71146522 2.61508252 -18.68657367 1.65689925 -12.4309082 1.22631836 C-8.18171282 0.83071686 -4.3059475 -0.12302707 0 0 Z " fill="#062F09" transform="translate(185,163)"/>
<path d="M0 0 C0.99 0 1.98 0 3 0 C2.35513501 4.99770365 0.53798337 9.66603504 -2 14 C-4.5625 15.75 -4.5625 15.75 -7 17 C-7.474375 17.845625 -7.94875 18.69125 -8.4375 19.5625 C-10.50361643 22.78564162 -12.3498742 23.14571524 -16 24 C-16.66 24 -17.32 24 -18 24 C-18 23.01 -18 22.02 -18 21 C-17.01 21 -16.02 21 -15 21 C-15.66 20.34 -16.32 19.68 -17 19 C-15.68 19 -14.36 19 -13 19 C-12.814375 17.88625 -12.814375 17.88625 -12.625 16.75 C-11.58083832 12.15568862 -11.58083832 12.15568862 -10 10 C-8.865625 9.566875 -7.73125 9.13375 -6.5625 8.6875 C-2.89438336 6.94997107 -2.50329377 6.76209278 -1.0625 3.3125 C-0.5365625 1.6728125 -0.5365625 1.6728125 0 0 Z " fill="#0C130B" transform="translate(206,100)"/>
<path d="M0 0 C4.09546152 2.15550606 7.25164086 4.53729804 9.375 8.6875 C9.58125 9.450625 9.7875 10.21375 10 11 C10.99 12.485 10.99 12.485 12 14 C11.01 14 10.02 14 9 14 C8.4225 13.360625 7.845 12.72125 7.25 12.0625 C4.28118909 9.34109 1.92978056 9.55154815 -2 9 C-4.625 7.0625 -4.625 7.0625 -7 5 C-9.6794645 3.75983331 -9.6794645 3.75983331 -12 3 C-8.50633923 -0.49366077 -4.69838446 -1.05162396 0 0 Z " fill="#0B130D" transform="translate(192,205)"/>
<path d="M0 0 C-3.79776235 3.79776235 -10.23785996 3.05484675 -15.375 3.09765625 C-17.25002516 3.09110022 -19.12503873 3.07931 -21 3.0625 C-21.96550781 3.05798828 -22.93101563 3.05347656 -23.92578125 3.04882812 C-26.28392089 3.03715417 -28.64192602 3.02078021 -31 3 C-31 3.66 -31 4.32 -31 5 C-30.34 5.33 -29.68 5.66 -29 6 C-29.33 7.32 -29.66 8.64 -30 10 C-30.66 10 -31.32 10 -32 10 C-31.57066874 13.4154263 -31.03525693 16.71185233 -30 20 C-27.74832154 21.71815438 -27.74832154 21.71815438 -25 23 C-22.02208137 26.4388741 -19.52028955 30.21956567 -17 34 C-20.92693286 32.40323297 -23.62442597 29.70789909 -26.5625 26.75 C-27.04396484 26.28464844 -27.52542969 25.81929687 -28.02148438 25.33984375 C-31.58716182 21.77907095 -34.79634798 18.04377215 -35.14453125 12.83984375 C-33.7591925 4.90266763 -33.7591925 4.90266763 -32 2 C-27.13873824 0.5252352 -22.0774194 0.9704113 -17.05859375 1.12695312 C-11.33724903 1.21958442 -5.25981085 -2.10392434 0 0 Z " fill="#001F01" transform="translate(88,36)"/>
<path d="M0 0 C-2.38573379 1.89213369 -4.07175348 3.02391783 -7 4 C-7.33 4.66 -7.66 5.32 -8 6 C-8.66 5.67 -9.32 5.34 -10 5 C-11.98687243 5.26057343 -13.97357502 5.52317837 -15.95703125 5.80859375 C-18.46252713 6.04333428 -20.58613759 5.6788988 -23 5 C-23 5.99 -23 6.98 -23 8 C-23.61746094 7.98839844 -24.23492188 7.97679687 -24.87109375 7.96484375 C-30.67120478 7.90304652 -36.26445464 8.08959597 -42 9 C-42.33 9.66 -42.66 10.32 -43 11 C-43.66 10.67 -44.32 10.34 -45 10 C-45 10.66 -45 11.32 -45 12 C-49.95 11.67 -54.9 11.34 -60 11 C-60 10.67 -60 10.34 -60 10 C-59.36425049 9.91024902 -58.72850098 9.82049805 -58.07348633 9.72802734 C-43.40120042 7.62955988 -28.91162299 5.09003698 -14.43481445 1.93115234 C-13.27425537 1.68059082 -12.11369629 1.4300293 -10.91796875 1.171875 C-9.89469482 0.9459668 -8.8714209 0.72005859 -7.81713867 0.48730469 C-5.14408568 0.02492374 -2.70552175 -0.09302654 0 0 Z " fill="#011E03" transform="translate(616,168)"/>
<path d="M0 0 C2 3 2 3 1.625 5.5 C1.41875 6.325 1.2125 7.15 1 8 C1 8.99 1 9.98 1 11 C0.37943989 12.68437744 -0.29289322 14.35008418 -1 16 C-1.350625 16.9075 -1.70125 17.815 -2.0625 18.75 C-3 21 -3 21 -4 22 C-3.67 22 -3.34 22 -3 22 C-2.66307215 23.60341555 -2.33058907 25.20776555 -2 26.8125 C-1.814375 27.70582031 -1.62875 28.59914063 -1.4375 29.51953125 C-1 32 -1 32 -1 35 C-0.01 35.33 0.98 35.66 2 36 C1.67 37.32 1.34 38.64 1 40 C0.01524786 38.90081184 -0.96260473 37.7954398 -1.9375 36.6875 C-2.48277344 36.07261719 -3.02804687 35.45773438 -3.58984375 34.82421875 C-6.97175435 30.44928177 -6.57547087 25.24111638 -6 20 C-2.90169759 5.80339518 -2.90169759 5.80339518 0 0 Z " fill="#031B03" transform="translate(590,97)"/>
<path d="M0 0 C0 0.33 0 0.66 0 1 C-6.6 1 -13.2 1 -20 1 C-20 1.99 -20 2.98 -20 4 C-28.16329062 8.53741215 -28.16329062 8.53741215 -33 8 C-34.32 8 -35.64 8 -37 8 C-39.66666667 8 -42.33333333 8 -45 8 C-42.31914932 6.59631863 -39.6912766 5.49063016 -36.8125 4.5625 C-36.03132812 4.30726562 -35.25015625 4.05203125 -34.4453125 3.7890625 C-32 3 -32 3 -29.5546875 2.2109375 C-28.77351562 1.95570312 -27.99234375 1.70046875 -27.1875 1.4375 C-26.47980469 1.20933594 -25.77210938 0.98117188 -25.04296875 0.74609375 C-22.94964136 0.02604917 -22.94964136 0.02604917 -20.86376953 -1.07324219 C-14.73269138 -4.12191558 -6.29454206 -1.47179272 0 0 Z " fill="#012202" transform="translate(682,27)"/>
<path d="M0 0 C0.66 0.66 1.32 1.32 2 2 C1.41992188 1.86722656 0.83984375 1.73445312 0.2421875 1.59765625 C-10.42146794 -0.81310414 -20.14085986 -1.77695021 -31 0 C-31.33 0.33 -31.66 0.66 -32 1 C-33.99541896 1.22528924 -35.99159864 1.44761095 -37.9921875 1.62109375 C-40.30715407 1.92253842 -40.30715407 1.92253842 -43 4 C-45.78015409 3.98282088 -48.42780513 3.86602139 -51.1875 3.625 C-51.93708984 3.56828125 -52.68667969 3.5115625 -53.45898438 3.453125 C-55.30676559 3.31189331 -57.153512 3.15723833 -59 3 C-59 2.67 -59 2.34 -59 2 C-55.04247389 1.34915656 -51.08384689 0.7052566 -47.125 0.0625 C-46.01640625 -0.11990234 -44.9078125 -0.30230469 -43.765625 -0.49023438 C-29.0628474 -2.86862487 -14.39204443 -5.10987897 0 0 Z " fill="#002200" transform="translate(747,150)"/>
<path d="M0 0 C0.33 0 0.66 0 1 0 C1.68257988 13.01077137 2.15552202 25.97071086 2 39 C1.34 39 0.68 39 0 39 C-0.33 45.27 -0.66 51.54 -1 58 C-1.33 58 -1.66 58 -2 58 C-2.38435288 38.61153242 -1.20138875 19.34044171 0 0 Z " fill="#002201" transform="translate(670,248)"/>
<path d="M0 0 C0.33 0 0.66 0 1 0 C1 2.64 1 5.28 1 8 C1.66 8 2.32 8 3 8 C3 11.73147895 2.46307374 14.13393625 1.5 17.6875 C-1.79852811 32.53087649 -0.67462156 48.95830992 1 64 C-3.9550801 59.0449199 -2.1525492 47.72217052 -2.18945312 41.16040039 C-2.18880859 39.84934326 -2.18816406 38.53828613 -2.1875 37.1875 C-2.1882251 36.51234344 -2.1889502 35.83718689 -2.18969727 35.14157104 C-2.18830254 23.34096656 -1.46240082 11.71226369 0 0 Z " fill="#012202" transform="translate(172,76)"/>
<path d="M0 0 C0.33 0 0.66 0 1 0 C1.02749766 1.37488287 1.0466164 2.74993391 1.0625 4.125 C1.07410156 4.89070312 1.08570313 5.65640625 1.09765625 6.4453125 C1 9 1 9 0.52734375 11.68359375 C-0.17407134 16.09471532 -0.32204391 20.47871121 -0.5 24.9375 C-0.88922635 34.64653515 -0.88922635 34.64653515 -1.65625 39.00390625 C-1.7696875 39.99261719 -1.883125 40.98132813 -2 42 C-1.34 42.66 -0.68 43.32 0 44 C0.66 44 1.32 44 2 44 C2 43.34 2 42.68 2 42 C2.99 42 3.98 42 5 42 C5.33 40.68 5.66 39.36 6 38 C9.3 38 12.6 38 16 38 C16 38.33 16 38.66 16 39 C15.41992188 39.17015625 14.83984375 39.3403125 14.2421875 39.515625 C10.37149694 40.71643329 6.96613924 41.82262699 3.6875 44.25 C1 46 1 46 -1.375 45.75 C-1.91125 45.5025 -2.4475 45.255 -3 45 C-3.89519405 41.28517727 -4.02840538 38.1197388 -3.73046875 34.31640625 C-3.64716309 33.22956543 -3.56385742 32.14272461 -3.47802734 31.02294922 C-3.38215332 29.88100098 -3.2862793 28.73905273 -3.1875 27.5625 C-3.04755615 25.81864014 -3.04755615 25.81864014 -2.90478516 24.03955078 C-2.23225326 15.97254763 -1.36431956 7.98272081 0 0 Z " fill="#003202" transform="translate(606,233)"/>
<path d="M0 0 C3.40553041 3.29567459 4.84786622 4.76119634 5.4375 9.5625 C5.30511858 14.10483758 3.95417152 17.33496921 1.3125 21.01171875 C-4.40586754 25.92835571 -13.64940056 27.32449863 -21 27 C-16.11782468 23.74521645 -10.86345082 22.23662868 -5.0625 21.5 C-4.051875 21.335 -3.04125 21.17 -2 21 C0.12508244 17.81237635 0.5020163 15.73487777 1 12 C1.66 12 2.32 12 3 12 C2.814375 11.38125 2.62875 10.7625 2.4375 10.125 C2 8 2 8 3 6 C2.01 6 1.02 6 0 6 C0 4.02 0 2.04 0 0 Z " fill="#002000" transform="translate(700,36)"/>
<path d="M0 0 C0.33 0.99 0.66 1.98 1 3 C-4.12919186 5.10428384 -8.5610835 5.21755666 -14 5 C-14 4.34 -14 3.68 -14 3 C-12.02 2.67 -10.04 2.34 -8 2 C-8 1.34 -8 0.68 -8 0 C-9.19238281 0.23976562 -10.38476562 0.47953125 -11.61328125 0.7265625 C-13.1795637 1.02668848 -14.74597698 1.32613223 -16.3125 1.625 C-17.09818359 1.78484375 -17.88386719 1.9446875 -18.69335938 2.109375 C-19.8293457 2.32207031 -19.8293457 2.32207031 -20.98828125 2.5390625 C-21.68477783 2.67521973 -22.38127441 2.81137695 -23.09887695 2.95166016 C-25 3 -25 3 -28 1 C-25.94921875 0.77213542 -23.8984375 0.54427083 -21.84765625 0.31640625 C-19.98859771 0.18113386 -19.98859771 0.18113386 -19 -1 C-12.4386536 -2.60388467 -6.54386676 -1.30017714 0 0 Z " fill="#031304" transform="translate(193,163)"/>
<path d="M0 0 C1.32 0.33 2.64 0.66 4 1 C2.755096 8.99359414 1.07529763 16.31117169 -5 22 C-8.42874244 25.17832859 -8.42874244 25.17832859 -11 29 C-13.06640625 29.4140625 -13.06640625 29.4140625 -15.5625 29.625 C-16.38878906 29.69976562 -17.21507812 29.77453125 -18.06640625 29.8515625 C-19.02353516 29.92503906 -19.02353516 29.92503906 -20 30 C-18 28 -18 28 -15.125 27.3125 C-11.73658322 25.88936495 -11.45456486 25.50887611 -9.875 22.4375 C-9.25625 21.303125 -8.6375 20.16875 -8 19 C-7.03707031 18.84917969 -7.03707031 18.84917969 -6.0546875 18.6953125 C-3.64273183 18.14673613 -3.64273183 18.14673613 -2.515625 15.05859375 C-2.09796875 13.86363281 -1.6803125 12.66867188 -1.25 11.4375 C-0.82203125 10.23996094 -0.3940625 9.04242188 0.046875 7.80859375 C0.36140625 6.88175781 0.6759375 5.95492187 1 5 C0.34 5 -0.32 5 -1 5 C-0.67 3.35 -0.34 1.7 0 0 Z " fill="#002D03" transform="translate(208,95)"/>
<path d="M0 0 C0.33 0.66 0.66 1.32 1 2 C-0.74707601 6.98035244 -3.02175323 11.62257777 -7.41796875 14.68359375 C-11.60401254 16.51380049 -14.09550707 17.18713647 -18.625 16.25 C-19.40875 15.8375 -20.1925 15.425 -21 15 C-20.0409375 14.5978125 -20.0409375 14.5978125 -19.0625 14.1875 C-16.66868314 13.11332248 -16.66868314 13.11332248 -16 10 C-13.13275314 10.57344937 -12.1385485 10.8614515 -10 13 C-7.89179203 12.6814823 -7.89179203 12.6814823 -6 12 C-6.226875 11.401875 -6.45375 10.80375 -6.6875 10.1875 C-6.8421875 9.1046875 -6.8421875 9.1046875 -7 8 C-5.6875 6.25 -5.6875 6.25 -4 5 C-3.34 5 -2.68 5 -2 5 C-2.33 3.68 -2.66 2.36 -3 1 C-2.01 0.67 -1.02 0.34 0 0 Z " fill="#001500" transform="translate(637,255)"/>
<path d="M0 0 C3.40636923 1.4095321 5.23944644 2.73040054 7 6 C7.8515851 9.05198957 8.30011486 11.83463758 8 15 C5.6875 17.875 5.6875 17.875 3 20 C2.34 20.99 1.68 21.98 1 23 C-2.44021704 24.41977211 -5.79233832 23.93684042 -9.4375 23.625 C-11.10619141 23.48964844 -11.10619141 23.48964844 -12.80859375 23.3515625 C-15.59278324 23.04485864 -18.26692664 22.6028087 -21 22 C-21 21.67 -21 21.34 -21 21 C-19.18757948 20.97312721 -17.37504767 20.95366285 -15.5625 20.9375 C-14.55316406 20.92589844 -13.54382813 20.91429687 -12.50390625 20.90234375 C-10 21 -10 21 -9 22 C-7.30858344 21.91036938 -5.62040398 21.75422324 -3.9375 21.5625 C-2.55884766 21.40974609 -2.55884766 21.40974609 -1.15234375 21.25390625 C-0.08693359 21.12822266 -0.08693359 21.12822266 1 21 C1.103125 20.21625 1.20625 19.4325 1.3125 18.625 C2 16 2 16 5 14 C5.73606499 10.43230448 5.73606499 10.43230448 6 7 C5.38125 6.773125 4.7625 6.54625 4.125 6.3125 C1.38589791 4.62070165 0.94975528 3.00755839 0 0 Z " fill="#002601" transform="translate(249,142)"/>
<path d="M0 0 C1.2902543 4.50133833 0.8623681 8.07235365 -1.0625 12.375 C-1.371875 12.91125 -1.68125 13.4475 -2 14 C-1.34 14.33 -0.68 14.66 0 15 C-0.14058476 17.45873768 -0.28722999 19.91685175 -0.4375 22.375 C-0.47681641 23.07367188 -0.51613281 23.77234375 -0.55664062 24.4921875 C-0.88671875 29.7734375 -0.88671875 29.7734375 -2 32 C-2.35169068 33.32860925 -2.68770276 34.66158328 -3 36 C-6.74118497 24.77644509 -4.36176429 10.67074478 0 0 Z " fill="#021B03" transform="translate(278,133)"/>
<path d="M0 0 C5.71658336 -0.45732667 8.48649253 0.47726246 13 4 C12.01 5.485 12.01 5.485 11 7 C8.9765625 7.36328125 8.9765625 7.36328125 6.625 7.3125 C5.85414063 7.30863281 5.08328125 7.30476562 4.2890625 7.30078125 C1.81997531 6.97634488 0.14820728 6.23105029 -2 5 C-1.34 3.35 -0.68 1.7 0 0 Z " fill="#0A0B0B" transform="translate(166,203)"/>
<path d="M0 0 C-0.639375 0.103125 -1.27875 0.20625 -1.9375 0.3125 C-2.618125 0.539375 -3.29875 0.76625 -4 1 C-4.33 1.99 -4.66 2.98 -5 4 C-6.6396875 4.2165625 -6.6396875 4.2165625 -8.3125 4.4375 C-11.93122987 4.88288104 -11.93122987 4.88288104 -15 6 C-21.01250863 7.12734537 -26.89538251 7.09935182 -33 7 C-29.89737667 5.27992353 -27.00149506 4.43498459 -23.53515625 3.7109375 C-22.48779297 3.49179688 -21.44042969 3.27265625 -20.36132812 3.046875 C-19.27271484 2.82515625 -18.18410156 2.6034375 -17.0625 2.375 C-15.43538086 2.03082031 -15.43538086 2.03082031 -13.77539062 1.6796875 C-9.10081979 0.71431823 -4.7908956 -0.14252466 0 0 Z " fill="#011C01" transform="translate(688,153)"/>
<path d="M0 0 C5.9470216 5.247372 10.80663839 12.04425593 12 20 C9.6328125 19.796875 9.6328125 19.796875 7 19 C5.7421875 16.890625 5.7421875 16.890625 4.875 14.25 C3.82889219 11.26476551 2.90344839 8.84137951 1.25 6.125 C0 4 0 4 0 0 Z " fill="#031A04" transform="translate(205,217)"/>
<path d="M0 0 C0.33 0 0.66 0 1 0 C1.33 3.63 1.66 7.26 2 11 C2.33 11 2.66 11 3 11 C3.10655578 17.44070471 2.96205088 23.62641289 2 30 C1.34 30 0.68 30 0 30 C-0.33 30.99 -0.66 31.98 -1 33 C-1.16207546 21.96086055 -0.65764731 11.01559238 0 0 Z " fill="#012202" transform="translate(472,210)"/>
<path d="M0 0 C1.04285156 -0.00515625 2.08570313 -0.0103125 3.16015625 -0.015625 C5.9375 0.25 5.9375 0.25 8.9375 2.25 C8.03386719 2.22679688 7.13023437 2.20359375 6.19921875 2.1796875 C5.01972656 2.16164063 3.84023438 2.14359375 2.625 2.125 C1.45324219 2.10179688 0.28148437 2.07859375 -0.92578125 2.0546875 C-4.22643661 1.99679382 -4.22643661 1.99679382 -7.0625 4.25 C-7.86586113 7.12759068 -7.86586113 7.12759068 -8.25 10.375 C-8.40855469 11.47070312 -8.56710937 12.56640625 -8.73046875 13.6953125 C-8.84003906 14.53835937 -8.94960938 15.38140625 -9.0625 16.25 C-9.7225 15.92 -10.3825 15.59 -11.0625 15.25 C-12.22060667 10.32804667 -12.30045392 6.83247708 -10.0625 2.25 C-6.78217049 0.030511 -3.89395333 -0.01930088 0 0 Z " fill="#012002" transform="translate(474.0625,16.75)"/>
<path d="M0 0 C3.8748238 6.71636125 3.12252576 14.37639718 3.0625 21.875 C3.05798828 22.94492188 3.05347656 24.01484375 3.04882812 25.1171875 C3.03709749 27.74484986 3.02068228 30.37239538 3 33 C2.67 33 2.34 33 2 33 C1.92652344 31.39318359 1.92652344 31.39318359 1.8515625 29.75390625 C1.77654706 28.35674361 1.7009987 26.9596095 1.625 25.5625 C1.5940625 24.85544922 1.563125 24.14839844 1.53125 23.41992188 C1.42719371 21.60760812 1.22080108 19.80182012 1 18 C0.34 17.67 -0.32 17.34 -1 17 C-1.4140625 14.27734375 -1.4140625 14.27734375 -1.625 10.9375 C-1.69976563 9.83277344 -1.77453125 8.72804687 -1.8515625 7.58984375 C-1.90054688 6.73519531 -1.94953125 5.88054687 -2 5 C-1.34 5 -0.68 5 0 5 C0 3.35 0 1.7 0 0 Z " fill="#001503" transform="translate(709,198)"/>
<path d="M0 0 C0 0.66 0 1.32 0 2 C-5.00310767 5.33540511 -9.15211135 5.20131202 -15.07421875 5.0390625 C-18.51190424 4.9931655 -21.6261433 5.38657151 -25 6 C-19.01176803 0.01176803 -8.05009639 -0.65418391 0 0 Z " fill="#011E03" transform="translate(681,99)"/>
<path d="M0 0 C1.28583984 0.23976562 1.28583984 0.23976562 2.59765625 0.484375 C5.13230017 1.31374096 6.2439361 2.22882865 7.9375 4.25 C5.9575 4.25 3.9775 4.25 1.9375 4.25 C1.6075 3.59 1.2775 2.93 0.9375 2.25 C-2.2323627 2.95441393 -5.19712272 3.70114742 -8.0625 5.25 C-8.72597631 7.73400985 -8.72597631 7.73400985 -9.0625 10.25 C-10.0525 10.91 -11.0425 11.57 -12.0625 12.25 C-12.14381463 10.81344146 -12.20183559 9.3755517 -12.25 7.9375 C-12.28480469 7.13699219 -12.31960938 6.33648437 -12.35546875 5.51171875 C-12.0625 3.25 -12.0625 3.25 -10.80078125 1.51953125 C-7.20217239 -1.10866623 -4.24980482 -0.84611499 0 0 Z " fill="#002600" transform="translate(428.0625,47.75)"/>
<path d="M0 0 C1.27875 0.103125 2.5575 0.20625 3.875 0.3125 C4.95394531 0.39951172 4.95394531 0.39951172 6.0546875 0.48828125 C8 1 8 1 10 4 C4.14847214 7.67810322 -2.24289459 8.14784279 -9 9 C-9 8.34 -9 7.68 -9 7 C-6.69 6.34 -4.38 5.68 -2 5 C-2 4.01 -2 3.02 -2 2 C-1.34 2 -0.68 2 0 2 C0 1.34 0 0.68 0 0 Z " fill="#252626" transform="translate(145,162)"/>
<path d="M0 0 C0.33 0 0.66 0 1 0 C1.31517612 10.2140409 1.09956271 20.12262767 -0.375 30.25 C-0.50108643 31.11778076 -0.62717285 31.98556152 -0.75708008 32.87963867 C-1.51139426 37.71938996 -2.5461917 42.32252982 -4 47 C-4.33 47 -4.66 47 -5 47 C-5.33 43.7 -5.66 40.4 -6 37 C-5.01 36.505 -5.01 36.505 -4 36 C-1.82968848 28.41998607 -1.38352321 20.7779275 -0.875 12.9375 C-0.78863281 11.69033203 -0.70226562 10.44316406 -0.61328125 9.15820312 C-0.40277269 6.10582901 -0.19850261 3.05317439 0 0 Z " fill="#001E01" transform="translate(710,231)"/>
<path d="M0 0 C2.0625 0.4375 2.0625 0.4375 4 1 C3.01 1 2.02 1 1 1 C1 1.99 1 2.98 1 4 C0.34 4 -0.32 4 -1 4 C-1.02698189 5.62490954 -1.04638757 7.24994633 -1.0625 8.875 C-1.07410156 9.77992187 -1.08570313 10.68484375 -1.09765625 11.6171875 C-1.16249257 14.0168585 -1.16249257 14.0168585 0 16 C0.99 16.33 1.98 16.66 3 17 C3.74913597 18.72626985 4.49295762 20.45586386 5.171875 22.2109375 C6.30905052 24.66766575 7.96836171 26.24858768 10 28 C7 28 7 28 5.28125 26.42578125 C-3.73617751 15.72747362 -3.73617751 15.72747362 -4 9 C-2.13131313 2.13131313 -2.13131313 2.13131313 0 0 Z " fill="#002600" transform="translate(576,42)"/>
<path d="M0 0 C0.33 0 0.66 0 1 0 C1.33 4.29 1.66 8.58 2 13 C1.01 13.495 1.01 13.495 0 14 C-0.6139581 17.51547862 -0.96114706 21.03404766 -1.33984375 24.58203125 C-1.99265473 27.96196973 -2.69910504 29.51102099 -5 32 C-3.78254331 21.22908903 -2.12034881 10.63001537 0 0 Z " fill="#002700" transform="translate(612,201)"/>
<path d="M0 0 C2.02514153 1.554076 3.38774171 2.99857591 5 5 C4.67 5.66 4.34 6.32 4 7 C3.4121875 6.01 3.4121875 6.01 2.8125 5 C1.14583333 2.70833333 1.14583333 2.70833333 -1.6875 2.75 C-2.8321875 2.87375 -2.8321875 2.87375 -4 3 C-4.33 2.01 -4.66 1.02 -5 0 C-10.55120204 -2.24410295 -16.05676409 -2.46720136 -22 -2 C-22.99 -1.505 -22.99 -1.505 -24 -1 C-26.6723621 -0.86584528 -29.32250488 -0.95681459 -32 -1 C-32 -1.33 -32 -1.66 -32 -2 C-20.85973612 -4.97073703 -10.4829952 -5.43241308 0 0 Z " fill="#002300" transform="translate(161,194)"/>
<path d="M0 0 C0.75410156 0.00322266 1.50820313 0.00644531 2.28515625 0.00976562 C3.06246094 0.01814453 3.83976563 0.02652344 4.640625 0.03515625 C5.43339844 0.03966797 6.22617187 0.04417969 7.04296875 0.04882812 C8.99222008 0.0605706 10.94143238 0.07850479 12.890625 0.09765625 C12.890625 0.42765625 12.890625 0.75765625 12.890625 1.09765625 C3.485625 1.59265625 3.485625 1.59265625 -6.109375 2.09765625 C-6.439375 6.38765625 -6.769375 10.67765625 -7.109375 15.09765625 C-8.099375 14.43765625 -9.089375 13.77765625 -10.109375 13.09765625 C-10.47265625 10.78515625 -10.47265625 10.78515625 -10.421875 8.09765625 C-10.41800781 7.21078125 -10.41414062 6.32390625 -10.41015625 5.41015625 C-10.109375 3.09765625 -10.109375 3.09765625 -8.109375 1.09765625 C-5.3660948 0.18884609 -2.87677895 -0.02179378 0 0 Z " fill="#002703" transform="translate(542.109375,178.90234375)"/>
<path d="M0 0 C6.05484678 9.08227016 3.90688043 21.65666102 3 32 C2.67 32 2.34 32 2 32 C1.93941406 31.25234375 1.87882813 30.5046875 1.81640625 29.734375 C1.73261719 28.74953125 1.64882812 27.7646875 1.5625 26.75 C1.48128906 25.77546875 1.40007812 24.8009375 1.31640625 23.796875 C1.07255577 21.07206847 1.07255577 21.07206847 0.4296875 18.76171875 C0 17 0 17 0.5625 15.0625 C1.22786976 12.91967497 1.22786976 12.91967497 0 10.75 C-1.41850785 6.84910342 -0.68951261 4.06812439 0 0 Z " fill="#032E08" transform="translate(145,112)"/>
<path d="M0 0 C-2.89234315 0.82638376 -4.88742431 1 -8 1 C-8 0.34 -8 -0.32 -8 -1 C-8.495 -0.814375 -8.99 -0.62875 -9.5 -0.4375 C-12.44334146 0.07758476 -15.02305742 -0.31305895 -17.9609375 -0.7421875 C-20.64879558 -1.08203163 -23.29502325 -1.06762442 -26 -1 C-26 -1.66 -26 -2.32 -26 -3 C-17.51404786 -4.81841832 -7.27689915 -5.10755941 0 0 Z " fill="#0A1609" transform="translate(370,103)"/>
<path d="M0 0 C1 3 1 3 -0.75 6.5625 C-1.13027344 7.26503906 -1.51054687 7.96757812 -1.90234375 8.69140625 C-3.05336558 11.11223865 -3.67563909 13.40048597 -4.3125 16 C-5.83951743 21.54187223 -8.95491339 25.03249039 -13 29 C-13.33 27.68 -13.66 26.36 -14 25 C-13.01 25 -12.02 25 -11 25 C-10.67 23.68 -10.34 22.36 -10 21 C-9.34 21 -8.68 21 -8 21 C-8.33 20.01 -8.66 19.02 -9 18 C-8.34 17.67 -7.68 17.34 -7 17 C-6.14843268 14.18224845 -5.52636307 11.33975854 -4.87890625 8.46875 C-4.44384766 7.24671875 -4.44384766 7.24671875 -4 6 C-3.01 5.67 -2.02 5.34 -1 5 C-0.67 3.35 -0.34 1.7 0 0 Z " fill="#001C00" transform="translate(383,150)"/>
<path d="M0 0 C4.38700854 8.32081372 2.56309934 15.18755135 0.10546875 23.8046875 C-1 27 -1 27 -3 29 C-4.0034246 23.982877 -4.08243558 20.71288053 -2 16 C-1.34 15.34 -0.68 14.68 0 14 C0.24377883 10.64255888 0.24377883 10.64255888 0.125 6.875 C0.09792969 4.95300781 0.09792969 4.95300781 0.0703125 2.9921875 C0.04710937 2.00476563 0.02390625 1.01734375 0 0 Z " fill="#022102" transform="translate(217,237)"/>
<path d="M0 0 C1.93166016 0.01740234 1.93166016 0.01740234 3.90234375 0.03515625 C5.19269531 0.04417969 6.48304688 0.05320313 7.8125 0.0625 C8.81152344 0.07410156 9.81054688 0.08570313 10.83984375 0.09765625 C10.83984375 0.42765625 10.83984375 0.75765625 10.83984375 1.09765625 C10.27700684 1.20311768 9.71416992 1.3085791 9.13427734 1.41723633 C-1.99579929 3.50738624 -13.10333946 5.64471538 -24.16015625 8.09765625 C-23.83015625 7.43765625 -23.50015625 6.77765625 -23.16015625 6.09765625 C-20.4375 5.46484375 -20.4375 5.46484375 -17.09765625 4.97265625 C-15.99292969 4.80507812 -14.88820313 4.6375 -13.75 4.46484375 C-12.46802734 4.28308594 -12.46802734 4.28308594 -11.16015625 4.09765625 C-11.16015625 3.43765625 -11.16015625 2.77765625 -11.16015625 2.09765625 C-9.45859375 1.88109375 -9.45859375 1.88109375 -7.72265625 1.66015625 C-4.02637385 1.07653271 -3.6179549 0.1118033 0 0 Z " fill="#001D00" transform="translate(141.16015625,170.90234375)"/>
<path d="M0 0 C0.33 0 0.66 0 1 0 C1.33 5.94 1.66 11.88 2 18 C1.01 18 0.02 18 -1 18 C-1 20.31 -1 22.62 -1 25 C-1.33 25 -1.66 25 -2 25 C-2.05786668 21.20839703 -2.09355054 17.41690689 -2.125 13.625 C-2.14175781 12.54476562 -2.15851563 11.46453125 -2.17578125 10.3515625 C-2.18222656 9.3203125 -2.18867188 8.2890625 -2.1953125 7.2265625 C-2.20578613 6.27346191 -2.21625977 5.32036133 -2.22705078 4.33837891 C-2 2 -2 2 0 0 Z " fill="#050B09" transform="translate(512,166)"/>
<path d="M0 0 C0.33 0.99 0.66 1.98 1 3 C1.66 3.33 2.32 3.66 3 4 C1.54955729 8.10958767 -0.51110752 11.43258745 -3 15 C-3.33 14.34 -3.66 13.68 -4 13 C-4.99 12.67 -5.98 12.34 -7 12 C-5.25 8.125 -5.25 8.125 -3 7 C-1.94647157 4.69034152 -0.94280904 2.3570226 0 0 Z " fill="#051605" transform="translate(501,236)"/>
<path d="M0 0 C0.99 0.66 1.98 1.32 3 2 C2.34 2 1.68 2 1 2 C1 2.66 1 3.32 1 4 C-3.38461538 7 -3.38461538 7 -6 7 C-6 6.34 -6 5.68 -6 5 C-7.32 5 -8.64 5 -10 5 C-10 5.66 -10 6.32 -10 7 C-13.47823115 8.15941038 -15.45895578 7.70820884 -19 7 C-15.51145835 4.67430557 -11.95516163 3.50974009 -8 2.25 C-7.27554688 2.00378906 -6.55109375 1.75757812 -5.8046875 1.50390625 C-3.6875 0.828125 -3.6875 0.828125 0 0 Z " fill="#011103" transform="translate(655,104)"/>
<path d="M0 0 C4.31813852 0.8636277 8.47338887 0.1101548 12.8125 -0.4375 C5.77583084 3.5002954 -3.17926547 5.12121404 -11.1875 4.5625 C-10.8575 3.2425 -10.5275 1.9225 -10.1875 0.5625 C-9.1975 0.8925 -8.2075 1.2225 -7.1875 1.5625 C-6.011875 1.0675 -6.011875 1.0675 -4.8125 0.5625 C-2.1875 -0.4375 -2.1875 -0.4375 0 0 Z " fill="#011D01" transform="translate(627.1875,144.4375)"/>
<path d="M0 0 C1.32 0.66 2.64 1.32 4 2 C-2.2558825 6.91202626 -7.95404529 9.68542132 -16 10 C-18.58849002 9.61419386 -20.55178641 8.97928544 -23 8 C-19.53777385 6.93276039 -16.35960734 6.89826514 -12.75 6.9375 C-11.67234375 6.94652344 -10.5946875 6.95554688 -9.484375 6.96484375 C-8.66453125 6.97644531 -7.8446875 6.98804688 -7 7 C-6.71125 6.360625 -6.4225 5.72125 -6.125 5.0625 C-5 3 -5 3 -3 2 C-2.01 2.33 -1.02 2.66 0 3 C0 2.01 0 1.02 0 0 Z " fill="#011B01" transform="translate(411,144)"/>
<path d="M0 0 C1.98567708 0.5859375 3.97135417 1.171875 5.95703125 1.7578125 C6.28703125 1.0978125 6.61703125 0.4378125 6.95703125 -0.2421875 C7.93736328 0.24894531 7.93736328 0.24894531 8.9375 0.75 C12.75190685 2.0231138 16.30183962 1.97500194 20.26953125 1.8828125 C21.38038086 1.86927734 21.38038086 1.86927734 22.51367188 1.85546875 C24.32826592 1.83205463 26.14269196 1.79618865 27.95703125 1.7578125 C27.95703125 2.0878125 27.95703125 2.4178125 27.95703125 2.7578125 C23.19346506 3.69404799 18.54782997 3.94964286 13.70703125 3.9453125 C12.96138916 3.94595703 12.21574707 3.94660156 11.44750977 3.94726562 C5.77779834 3.89318057 0.44035286 3.26673638 -5.04296875 1.7578125 C-2.04296875 -0.2421875 -2.04296875 -0.2421875 0 0 Z " fill="#001801" transform="translate(134.04296875,305.2421875)"/>
<path d="M0 0 C0.66 0.99 1.32 1.98 2 3 C1.3125 5.375 1.3125 5.375 0 8 C-0.6496875 9.3921875 -0.6496875 9.3921875 -1.3125 10.8125 C-1.869375 11.534375 -2.42625 12.25625 -3 13 C-5.6875 13.3125 -5.6875 13.3125 -8 13 C-8 11 -8 9 -8 7 C-6 7 -6 7 -4.375 8.5 C-3.92125 8.995 -3.4675 9.49 -3 10 C-2.814375 8.081875 -2.814375 8.081875 -2.625 6.125 C-2.25 2.25 -2.25 2.25 0 0 Z " fill="#051B08" transform="translate(678,296)"/>
<path d="M0 0 C-4.61800279 2.45846207 -9.49255411 3.74369776 -14.5 5.1875 C-15.92505859 5.61579102 -15.92505859 5.61579102 -17.37890625 6.05273438 C-18.29542969 6.31763672 -19.21195313 6.58253906 -20.15625 6.85546875 C-20.98962891 7.09934326 -21.82300781 7.34321777 -22.68164062 7.59448242 C-25.15106323 8.02642334 -26.64573697 7.79276895 -29 7 C-27.35 6.67 -25.7 6.34 -24 6 C-24 5.34 -24 4.68 -24 4 C-21.56857203 3.25186832 -19.75476726 3.01089923 -17.1875 3.125 C-13.8626791 3.18813943 -13.8626791 3.18813943 -10.5625 1.5 C-6.7391874 -0.10981583 -4.10113801 -0.25109008 0 0 Z " fill="#001B00" transform="translate(599,203)"/>
<path d="M0 0 C0.66 0.33 1.32 0.66 2 1 C1.01 2.485 1.01 2.485 0 4 C-0.66 4 -1.32 4 -2 4 C-1.979375 5.0725 -1.95875 6.145 -1.9375 7.25 C-1.9857984 10.14790424 -2.13155885 12.28612141 -3 15 C-4.65 15.33 -6.3 15.66 -8 16 C-8 14.35 -8 12.7 -8 11 C-7.34 11 -6.68 11 -6 11 C-5.731875 9.865625 -5.46375 8.73125 -5.1875 7.5625 C-4.795625 6.386875 -4.40375 5.21125 -4 4 C-3.01 3.67 -2.02 3.34 -1 3 C-0.67 2.01 -0.34 1.02 0 0 Z " fill="#0E1D14" transform="translate(183,125)"/>
<path d="M0 0 C1.11991797 3.36315792 0.85748516 5.57005937 0.00390625 8.984375 C-0.22490234 9.91894531 -0.45371094 10.85351562 -0.68945312 11.81640625 C-0.93630859 12.78449219 -1.18316406 13.75257812 -1.4375 14.75 C-1.68048828 15.73355469 -1.92347656 16.71710938 -2.17382812 17.73046875 C-2.77428331 20.15583673 -3.38326726 22.57872945 -4 25 C-4.95611549 21.49314042 -5.10211174 18.39428019 -5.0625 14.75 C-5.04896484 13.13351563 -5.04896484 13.13351563 -5.03515625 11.484375 C-5.02355469 10.66453125 -5.01195312 9.8446875 -5 9 C-4.34 9 -3.68 9 -3 9 C-2.87625 8.2575 -2.7525 7.515 -2.625 6.75 C-2.04513299 4.19858515 -1.26291261 2.2732427 0 0 Z " fill="#012701" transform="translate(217,71)"/>
<path d="M0 0 C0 0.66 0 1.32 0 2 C-1.32 2.33 -2.64 2.66 -4 3 C-4 2.34 -4 1.68 -4 1 C-5.0621875 1.2165625 -6.124375 1.433125 -7.21875 1.65625 C-8.64575528 1.93789578 -10.07284313 2.21912338 -11.5 2.5 C-12.19609375 2.64308594 -12.8921875 2.78617188 -13.609375 2.93359375 C-20.56109396 4.28531688 -27.00299547 4.39940091 -34 3 C-34 2.67 -34 2.34 -34 2 C-33.34257813 2.03480469 -32.68515625 2.06960937 -32.0078125 2.10546875 C-24.48449774 2.31954681 -17.50160703 1.41075486 -10.14501953 -0.02075195 C-6.40754399 -0.72300608 -3.63928593 -1.1086868 0 0 Z " fill="#002C02" transform="translate(614,41)"/>
<path d="M0 0 C0 0.66 0 1.32 0 2 C-7.72888819 3.95403042 -15.05042008 4.22428282 -23 4 C-23 3.67 -23 3.34 -23 3 C-20.1066878 2.29995665 -17.21116999 1.6146758 -14.3125 0.9375 C-13.49587891 0.73833984 -12.67925781 0.53917969 -11.83789062 0.33398438 C-7.58990788 -0.64631933 -4.27435495 -1.38415975 0 0 Z " fill="#0D1518" transform="translate(162,167)"/>
<path d="M0 0 C-0.33 10.89 -0.66 21.78 -1 33 C-1.33 33 -1.66 33 -2 33 C-2.33 22.44 -2.66 11.88 -3 1 C-1 0 -1 0 0 0 Z " fill="#001F00" transform="translate(459,98)"/>
<path d="M0 0 C-0.99 1.485 -0.99 1.485 -2 3 C-2.66 2.34 -3.32 1.68 -4 1 C-6.65537372 0.43479997 -9.29144713 0.26211802 -12 0 C-12.33 0.66 -12.66 1.32 -13 2 C-13.66 2 -14.32 2 -15 2 C-15.99 2.33 -16.98 2.66 -18 3 C-20.6875 2.5625 -20.6875 2.5625 -23 2 C-23 1.67 -23 1.34 -23 1 C-15.32598655 -2.04783513 -7.71914413 -3.98407439 0 0 Z " fill="#001A00" transform="translate(194,11)"/>
<path d="M0 0 C0 0.66 0 1.32 0 2 C-0.763125 2.22816406 -1.52625 2.45632813 -2.3125 2.69140625 C-5.61447967 4.29920158 -6.33347669 5.71334554 -8 8.9375 C-10.10312225 12.99437502 -11.825077 15.02205556 -16 17 C-18.3125 16.6875 -18.3125 16.6875 -20 16 C-19.01 15.67 -18.02 15.34 -17 15 C-16.2884375 14.2884375 -16.2884375 14.2884375 -15.5625 13.5625 C-14 12 -14 12 -11.9375 11.25 C-9.59802451 10.05191547 -9.59802451 10.05191547 -9.125 6.5625 C-8 3 -8 3 -5 1.0625 C-2 0 -2 0 0 0 Z " fill="#032204" transform="translate(705,279)"/>
<path d="M0 0 C-0.66 1.65 -1.32 3.3 -2 5 C-2.99 4.34 -3.98 3.68 -5 3 C-7.90772467 2.79530967 -7.90772467 2.79530967 -11.0625 2.9375 C-16.80482204 3.09758898 -16.80482204 3.09758898 -19 2 C-19 1.34 -19 0.68 -19 0 C-18.19175781 0.01160156 -17.38351563 0.02320313 -16.55078125 0.03515625 C-15.48214844 0.04417969 -14.41351563 0.05320313 -13.3125 0.0625 C-11.72888672 0.07990234 -11.72888672 0.07990234 -10.11328125 0.09765625 C-7.03769673 0.08924577 -7.03769673 0.08924577 -4.23046875 -0.56640625 C-2 -1 -2 -1 0 0 Z " fill="#0D0D0B" transform="translate(197,156)"/>
<path d="M0 0 C0.66 0 1.32 0 2 0 C2.40652968 5.42039575 1.03993514 9.07015675 -1 14 C-1.66 14 -2.32 14 -3 14 C-4.35714286 7.58441558 -4.35714286 7.58441558 -2.625 4.75 C-1.820625 3.88375 -1.820625 3.88375 -1 3 C-0.67 2.01 -0.34 1.02 0 0 Z " fill="#192019" transform="translate(505,225)"/>
<path d="M0 0 C6.32966418 0.56263682 12.21835667 2.34924657 18 5 C18.33 5.66 18.66 6.32 19 7 C18.34773437 6.84402344 17.69546875 6.68804687 17.0234375 6.52734375 C12.02937096 5.41509589 8.06165813 4.6679847 3 6 C2.87625 5.195625 2.7525 4.39125 2.625 3.5625 C2.315625 2.2940625 2.315625 2.2940625 2 1 C1.34 0.67 0.68 0.34 0 0 Z " fill="#011A01" transform="translate(688,97)"/>
<path d="M0 0 C3.70722086 3.19588005 5.40645479 6.38710598 7 11 C6.67 11.99 6.34 12.98 6 14 C5.34 12.35 4.68 10.7 4 9 C3.38125 9.20625 2.7625 9.4125 2.125 9.625 C1.42375 9.74875 0.7225 9.8725 0 10 C-0.66 9.34 -1.32 8.68 -2 8 C-1.34 7.67 -0.68 7.34 0 7 C-0.185625 6.030625 -0.37125 5.06125 -0.5625 4.0625 C-0.706875 3.051875 -0.85125 2.04125 -1 1 C-0.67 0.67 -0.34 0.34 0 0 Z " fill="#050B06" transform="translate(450,62)"/>
<path d="M0 0 C3.3 0 6.6 0 10 0 C10 0.33 10 0.66 10 1 C9.41992188 1.17015625 8.83984375 1.3403125 8.2421875 1.515625 C4.37149694 2.71643329 0.96613924 3.82262699 -2.3125 6.25 C-5 8 -5 8 -7.375 7.75 C-7.91125 7.5025 -8.4475 7.255 -9 7 C-9.33 5.35 -9.66 3.7 -10 2 C-9.34 1.67 -8.68 1.34 -8 1 C-7.67 2.65 -7.34 4.3 -7 6 C-6.01 6 -5.02 6 -4 6 C-4 5.34 -4 4.68 -4 4 C-3.01 4 -2.02 4 -1 4 C-0.67 2.68 -0.34 1.36 0 0 Z " fill="#002100" transform="translate(612,271)"/>
<path d="M0 0 C0.33 0.66 0.66 1.32 1 2 C0.41012326 3.46135293 -0.24854767 4.89516037 -0.9375 6.3125 C-3.58464782 12.52556516 -3.3751766 18.35103685 -3 25 C-3.66 24.67 -4.32 24.34 -5 24 C-4.98839844 23.01257813 -4.97679688 22.02515625 -4.96484375 21.0078125 C-4.95582031 19.72648437 -4.94679688 18.44515625 -4.9375 17.125 C-4.92589844 15.84882813 -4.91429688 14.57265625 -4.90234375 13.2578125 C-4.76823431 10.11335348 -4.76823431 10.11335348 -6 8 C-4.74516551 4.57772411 -2.6348519 2.45919511 0 0 Z " fill="#002201" transform="translate(130,246)"/>
<path d="M0 0 C0 2.64 0 5.28 0 8 C1.32 8.33 2.64 8.66 4 9 C3.67 9.66 3.34 10.32 3 11 C3.27942455 12.67654729 3.60828247 14.34608154 4 16 C0.10873653 12.66463131 -2.17099741 8.73789501 -4 4 C-4 3.01 -4 2.02 -4 1 C-1 0 -1 0 0 0 Z " fill="#001A01" transform="translate(280,168)"/>
<path d="M0 0 C0.66 0.33 1.32 0.66 2 1 C2 2.32 2 3.64 2 5 C1.28972656 4.94714844 0.57945312 4.89429687 -0.15234375 4.83984375 C-4.43538458 5.08072808 -7.60949512 7.07476241 -11.37890625 9.00390625 C-14.27982118 10.10634039 -15.14136625 9.87534019 -18 9 C-12 6 -6 3 0 0 Z " fill="#001D00" transform="translate(408,111)"/>
<path d="M0 0 C0.66 0 1.32 0 2 0 C1.67 2.31 1.34 4.62 1 7 C4.96 6.34 8.92 5.68 13 5 C11.63215249 7.73569502 9.66237461 8.33631214 6.921875 9.46875 C4.09100878 10.25126587 1.79298073 9.74933629 -1 9 C-0.67 6.03 -0.34 3.06 0 0 Z " fill="#011801" transform="translate(623,106)"/>
<path d="M0 0 C0.33 0.66 0.66 1.32 1 2 C-1.64 2 -4.28 2 -7 2 C-7 2.66 -7 3.32 -7 4 C-11.33273814 4.92844389 -14.66726186 4.92844389 -19 4 C-15.91450652 2.33354243 -12.87324675 1.26238404 -9.5 0.3125 C-8.5615625 0.04050781 -7.623125 -0.23148438 -6.65625 -0.51171875 C-3.97159213 -1.00522204 -2.50836597 -1.03185055 0 0 Z " fill="#011D02" transform="translate(55,169)"/>
<path d="M0 0 C0 0.66 0 1.32 0 2 C-5.64399358 4.44064587 -10.97751478 4.19289099 -17 4 C-14.63699651 1.63699651 -13.4201502 1.48566556 -10.1875 0.875 C-8.90939453 0.62363281 -8.90939453 0.62363281 -7.60546875 0.3671875 C-5.03156189 0.004448 -2.59538412 -0.06523407 0 0 Z " fill="#2C342E" transform="translate(185,163)"/>
<path d="M0 0 C2.07647071 3.11470607 2.3624111 4.44388746 2.6875 8.0625 C2.77386719 8.94035156 2.86023438 9.81820312 2.94921875 10.72265625 C3 13 3 13 2 15 C1.34 15 0.68 15 0 15 C0 15.66 0 16.32 0 17 C-0.66 17 -1.32 17 -2 17 C-1.34 11.39 -0.68 5.78 0 0 Z " fill="#002001" transform="translate(349,133)"/>
<path d="M0 0 C3.67033927 3.27708863 5.69281189 6.71522208 8 11 C9.98 11 11.96 11 14 11 C12 13 12 13 10.0546875 13.1953125 C8.03645833 13.13020833 6.01822917 13.06510417 4 13 C4 12.01 4 11.02 4 10 C3.34 9.34 2.68 8.68 2 8 C0.15145056 4.91908427 0 3.79972824 0 0 Z " fill="#011E01" transform="translate(376,110)"/>
<path d="M0 0 C0.99 0 1.98 0 3 0 C2.36511918 4.92032635 0.54680948 9.74946279 -2 14 C-2.99 14.33 -3.98 14.66 -5 15 C-4.67 13.35 -4.34 11.7 -4 10 C-3.34 10 -2.68 10 -2 10 C-1.34 6.7 -0.68 3.4 0 0 Z " fill="#111F14" transform="translate(206,100)"/>
<path d="M0 0 C0.33 0 0.66 0 1 0 C0.67 2.31 0.34 4.62 0 7 C1.155 6.95875 2.31 6.9175 3.5 6.875 C7.94481301 6.85912567 11.73724131 7.78206895 16 9 C16 9.33 16 9.66 16 10 C13.75006641 10.02707139 11.50003905 10.04642829 9.25 10.0625 C7.99703125 10.07410156 6.7440625 10.08570312 5.453125 10.09765625 C2 10 2 10 -2 9 C-1.34 6.03 -0.68 3.06 0 0 Z " fill="#022C03" transform="translate(347,90)"/>
<path d="M0 0 C0 0.99 0 1.98 0 3 C-2 5 -2 5 -4 7 C-4.165 7.66 -4.33 8.32 -4.5 9 C-5.20341605 11.81366419 -6.88989799 13.09410141 -9 15 C-9.66 14.67 -10.32 14.34 -11 14 C-9.42219077 10.28954753 -7.09296752 7.70093616 -4.375 4.75 C-3.55773437 3.85796875 -2.74046875 2.9659375 -1.8984375 2.046875 C-1.27195312 1.37140625 -0.64546875 0.6959375 0 0 Z " fill="#001D00" transform="translate(112,209)"/>
<path d="M0 0 C6.23440168 1.58960332 12.16287645 3.27600901 18 6 C14.20731707 7.26422764 12.70731707 6.23577236 9 5 C8.01 5.33 7.02 5.66 6 6 C3.375 5.3125 3.375 5.3125 1 4 C0.3515625 1.91796875 0.3515625 1.91796875 0 0 Z " fill="#022303" transform="translate(231,135)"/>
<path d="M0 0 C0.66 0.33 1.32 0.66 2 1 C3.99960012 1.039992 6.00047242 1.04346799 8 1 C5.35261084 2.4606285 4.10551666 3 1 3 C0.731875 3.61875 0.46375 4.2375 0.1875 4.875 C-1 7 -1 7 -4 9 C-4 6.69 -4 4.38 -4 2 C-2.125 0.9375 -2.125 0.9375 0 0 Z " fill="#011603" transform="translate(483,256)"/>
<path d="M0 0 C6.4 -0.49230769 6.4 -0.49230769 9.4375 2 C10.2109375 2.99 10.2109375 2.99 11 4 C8.2780754 5.3609623 6.8168043 4.70366248 3.875 4.0625 C2.96492187 3.86785156 2.05484375 3.67320312 1.1171875 3.47265625 C0.41851562 3.31667969 -0.28015625 3.16070312 -1 3 C-0.67 2.01 -0.34 1.02 0 0 Z " fill="#171E21" transform="translate(166,203)"/>
<path d="M0 0 C0.33 0 0.66 0 1 0 C0.85796663 2.37528151 0.71148388 4.75015251 0.5625 7.125 C0.52318359 7.79015625 0.48386719 8.4553125 0.44335938 9.140625 C0.187848 13.15018817 -0.26782413 17.04994196 -1 21 C-1.33 21 -1.66 21 -2 21 C-2.22126178 18.54220024 -2.42750395 16.08472352 -2.625 13.625 C-2.68945312 12.92632812 -2.75390625 12.22765625 -2.8203125 11.5078125 C-2.96119739 9.67630889 -2.98761659 7.83687252 -3 6 C-2.34 5.34 -1.68 4.68 -1 4 C-0.3574765 1.93125966 -0.3574765 1.93125966 0 0 Z " fill="#001D00" transform="translate(645,213)"/>
<path d="M0 0 C0 0.66 0 1.32 0 2 C-1.36125 1.938125 -1.36125 1.938125 -2.75 1.875 C-7.38388605 1.83701733 -11.80517985 2.82796845 -16.328125 3.7578125 C-19 4 -19 4 -22 2 C-19.94921875 1.77213542 -17.8984375 1.54427083 -15.84765625 1.31640625 C-13.98859771 1.18113386 -13.98859771 1.18113386 -13 0 C-8.35417132 -0.9109468 -4.62492794 -1.01522809 0 0 Z " fill="#181718" transform="translate(187,162)"/>
<path d="M0 0 C1.05541976 3.16625928 0.9777654 4.85476936 0.625 8.125 C0.48964844 9.45917969 0.48964844 9.45917969 0.3515625 10.8203125 C0 13 0 13 -1 14 C-1.23287008 15.68183948 -1.41264166 17.3712416 -1.5625 19.0625 C-1.64628906 19.98160156 -1.73007813 20.90070313 -1.81640625 21.84765625 C-1.87699219 22.55792969 -1.93757813 23.26820313 -2 24 C-2.33 24 -2.66 24 -3 24 C-3.36741339 15.44062871 -2.73977333 8.13777913 0 0 Z " fill="#002300" transform="translate(89,243)"/>
<path d="M0 0 C2.29199177 0.14063135 4.58359186 0.28765943 6.875 0.4375 C8.15117187 0.51871094 9.42734375 0.59992188 10.7421875 0.68359375 C14 1 14 1 16 2 C16.625 5.0625 16.625 5.0625 17 8 C16.52691406 7.66226563 16.05382812 7.32453125 15.56640625 6.9765625 C10.51220552 3.56768638 6.01129318 1.93230704 0 1 C0 0.67 0 0.34 0 0 Z " fill="#031D04" transform="translate(154,220)"/>
<path d="M0 0 C3.99500618 1.3697164 6.80009492 3.25722422 10 6 C9.67 6.66 9.34 7.32 9 8 C6.1875 7.9375 6.1875 7.9375 3 7 C1.5073959 4.72555566 0.85757989 2.62038301 0 0 Z " fill="#011C03" transform="translate(440,54)"/>
<path d="M0 0 C1.98 0 3.96 0 6 0 C2.23156953 4.12172083 -1.88904305 7.63068221 -7 10 C-7.66 9.67 -8.32 9.34 -9 9 C-8.01 8.67 -7.02 8.34 -6 8 C-6 7.34 -6 6.68 -6 6 C-5.01 6 -4.02 6 -3 6 C-2.690625 5.38125 -2.38125 4.7625 -2.0625 4.125 C-1.375 2.75 -0.6875 1.375 0 0 Z " fill="#001A01" transform="translate(355,185)"/>
<path d="M0 0 C4.59306496 1.4859916 7.43569245 3.85014682 11 7 C10.01 7.33 9.02 7.66 8 8 C7.34 7.34 6.68 6.68 6 6 C5.01 6.495 5.01 6.495 4 7 C3.34 6.67 2.68 6.34 2 6 C2 4.68 2 3.36 2 2 C1.34 2 0.68 2 0 2 C0 1.34 0 0.68 0 0 Z " fill="#011C01" transform="translate(190,205)"/>
<path d="M0 0 C0.66 0.66 1.32 1.32 2 2 C-1.63 2.66 -5.26 3.32 -9 4 C-9.33 2.68 -9.66 1.36 -10 0 C-3.42391304 -1.3451087 -3.42391304 -1.3451087 0 0 Z " fill="#001600" transform="translate(644,70)"/>
<path d="M0 0 C0.66 0.33 1.32 0.66 2 1 C1.67 1.66 1.34 2.32 1 3 C-2.76300374 4.25433458 -6.27210909 4.10695422 -10.1875 4.0625 C-10.93708984 4.05798828 -11.68667969 4.05347656 -12.45898438 4.04882812 C-14.30602383 4.03706354 -16.15302213 4.01912865 -18 4 C-18 3.67 -18 3.34 -18 3 C-16.95199219 2.86722656 -15.90398437 2.73445312 -14.82421875 2.59765625 C-13.44529222 2.41942765 -12.06638707 2.24103359 -10.6875 2.0625 C-9.65206055 1.93198242 -9.65206055 1.93198242 -8.59570312 1.79882812 C-5.59857712 1.40789865 -2.87549881 0.9584996 0 0 Z " fill="#002501" transform="translate(215,133)"/>
<path d="M0 0 C0.66 1.32 1.32 2.64 2 4 C0.88200014 5.33920838 -0.24461897 6.67122556 -1.375 8 C-2.31472656 9.11375 -2.31472656 9.11375 -3.2734375 10.25 C-3.84320313 10.8275 -4.41296875 11.405 -5 12 C-5.66 12 -6.32 12 -7 12 C-5.44298069 7.32894208 -2.91552627 3.91294315 0 0 Z " fill="#001E02" transform="translate(300,94)"/>
<path d="M0 0 C-0.33 0.66 -0.66 1.32 -1 2 C-1.825 2.268125 -2.65 2.53625 -3.5 2.8125 C-4.7375 3.4003125 -4.7375 3.4003125 -6 4 C-6.66347631 6.48400985 -6.66347631 6.48400985 -7 9 C-7.99 9.66 -8.98 10.32 -10 11 C-10 8.03 -10 5.06 -10 2 C-6.49223216 0.39644899 -3.85645121 -0.22036864 0 0 Z " fill="#021A03" transform="translate(426,49)"/>
<path d="M0 0 C0.33 0.99 0.66 1.98 1 3 C3.31 3 5.62 3 8 3 C3.39033958 5.48212484 -0.72927515 7 -6 7 C-6 6.34 -6 5.68 -6 5 C-5.38125 4.9175 -4.7625 4.835 -4.125 4.75 C-1.81562433 4.18741541 -1.81562433 4.18741541 -0.75 1.9375 C-0.5025 1.298125 -0.255 0.65875 0 0 Z " fill="#001501" transform="translate(165,48)"/>
<path d="M0 0 C6.89203498 1.20337119 12.06080693 3.32135086 18 7 C15.26634878 8.36682561 13.89333621 7.84683011 11 7 C10.525625 6.505 10.05125 6.01 9.5625 5.5 C7.29782111 3.32590827 5.04292263 3.33810251 2 3 C2 2.34 2 1.68 2 1 C1.34 0.67 0.68 0.34 0 0 Z " fill="#002700" transform="translate(682,28)"/>
<path d="M0 0 C2 3 2 3 1.875 5.25 C0.72382217 8.86798746 -1.02797934 11.75570795 -3 15 C-3.33 14.34 -3.66 13.68 -4 13 C-3.34 12.01 -2.68 11.02 -2 10 C-1.58256635 7.75354124 -1.58256635 7.75354124 -1.4375 5.375 C-1.09841828 1.09841828 -1.09841828 1.09841828 0 0 Z " fill="#021702" transform="translate(212,263)"/>
<path d="M0 0 C3.26845713 4.90268569 4.27944109 9.13173703 4 15 C3.01 14.67 2.02 14.34 1 14 C-0.04541872 9.29561575 0 4.79792331 0 0 Z " fill="#021802" transform="translate(641,198)"/>
<path d="M0 0 C-1.98 0.99 -1.98 0.99 -4 2 C-2.02 3.65 -0.04 5.3 2 7 C1.01 7.33 0.02 7.66 -1 8 C-2.36538653 7.04422943 -3.69481525 6.03647024 -5 5 C-6.64797236 4.28837557 -8.31165408 3.60968047 -10 3 C-6.68152292 -0.06320961 -4.44849969 -0.3033068 0 0 Z " fill="#1E2227" transform="translate(190,205)"/>
<path d="M0 0 C0.99 0.33 1.98 0.66 3 1 C1.52464063 3.00291212 0.04497707 5.00236777 -1.4375 7 C-1.85837891 7.57234375 -2.27925781 8.1446875 -2.71289062 8.734375 C-3.78444136 10.17453919 -4.88966676 11.58951996 -6 13 C-6.33 13 -6.66 13 -7 13 C-7.25 10.75 -7.25 10.75 -7 8 C-5.125 5.6875 -5.125 5.6875 -3 4 C-2.34 4 -1.68 4 -1 4 C-0.67 2.68 -0.34 1.36 0 0 Z " fill="#001C00" transform="translate(138,233)"/>
<path d="M0 0 C0.33 0.66 0.66 1.32 1 2 C-5.5 5 -5.5 5 -10 5 C-9 2 -9 2 -7.25 0.8125 C-4.70039426 -0.10819096 -2.69076919 -0.14948718 0 0 Z " fill="#191B1D" transform="translate(661,29)"/>
<path d="M0 0 C2.31 0.33 4.62 0.66 7 1 C3.63576723 3.96052484 0.30840713 4.92289822 -4 6 C-3.67 4.68 -3.34 3.36 -3 2 C-2.01 2 -1.02 2 0 2 C0 1.34 0 0.68 0 0 Z " fill="#001500" transform="translate(173,299)"/>
<path d="M0 0 C0.33 0.99 0.66 1.98 1 3 C3.97 3.495 3.97 3.495 7 4 C6.34 5.32 5.68 6.64 5 8 C3.68 8 2.36 8 1 8 C-0.35439668 5.29120665 -0.06501451 2.99066732 0 0 Z " fill="#002501" transform="translate(471,264)"/>
<path d="M0 0 C0.33 0 0.66 0 1 0 C1.33 4.29 1.66 8.58 2 13 C1.01 13.33 0.02 13.66 -1 14 C-1.02705729 12.22925083 -1.04642195 10.45838289 -1.0625 8.6875 C-1.07410156 7.70136719 -1.08570313 6.71523437 -1.09765625 5.69921875 C-1 3 -1 3 0 0 Z " fill="#021902" transform="translate(612,201)"/>
<path d="M0 0 C-3.53980214 3.40295412 -7.06652107 3.5325645 -11.75 3.6875 C-12.79607422 3.73874023 -12.79607422 3.73874023 -13.86328125 3.79101562 C-15.57497108 3.87308295 -17.2874576 3.93822919 -19 4 C-16.05075061 2.37893452 -13.36193006 1.51556732 -10.0625 0.875 C-8.81146484 0.62363281 -8.81146484 0.62363281 -7.53515625 0.3671875 C-4.98541981 -0.00211177 -2.57240933 -0.06442528 0 0 Z " fill="#002700" transform="translate(616,168)"/>
<path d="M0 0 C2.475 0.99 2.475 0.99 5 2 C1.75518249 4.16321167 -1.35055759 5.6314591 -5 7 C-5.99 6.67 -6.98 6.34 -8 6 C-3.375 2 -3.375 2 0 2 C0 1.34 0 0.68 0 0 Z " fill="#001A01" transform="translate(78,187)"/>
<path d="M0 0 C-1.20703125 1.51953125 -1.20703125 1.51953125 -3 3 C-5.26171875 3.07421875 -5.26171875 3.07421875 -7.6875 2.6875 C-8.89986328 2.50767578 -8.89986328 2.50767578 -10.13671875 2.32421875 C-10.75160156 2.21722656 -11.36648437 2.11023438 -12 2 C-11.67 1.34 -11.34 0.68 -11 0 C-7.08234111 -0.81309902 -3.82092412 -1.37553268 0 0 Z " fill="#0C140C" transform="translate(212,138)"/>
<path d="M0 0 C-2.97 3.96 -2.97 3.96 -6 8 C-8 4 -8 4 -7.375 1.8125 C-6 0 -6 0 -4 -0.8125 C-2 -1 -2 -1 0 0 Z " fill="#011900" transform="translate(334,116)"/>
<path d="M0 0 C3.61569905 2.63848309 6.02835214 4.95293333 8 9 C8 9.99 8 10.98 8 12 C7.01 11.67 6.02 11.34 5 11 C3.96514123 8.68191636 2.9644586 6.34824702 2 4 C1.34 3.67 0.68 3.34 0 3 C0 2.01 0 1.02 0 0 Z " fill="#002801" transform="translate(137,100)"/>
<path d="M0 0 C1.32 0 2.64 0 4 0 C4 0.66 4 1.32 4 2 C6.31 2 8.62 2 11 2 C11 2.33 11 2.66 11 3 C5.39436958 3.82622671 0.57710648 4.06795656 -5 3 C-5 2.67 -5 2.34 -5 2 C-3.35 1.67 -1.7 1.34 0 1 C0 0.67 0 0.34 0 0 Z " fill="#001A01" transform="translate(748,181)"/>
<path d="M0 0 C0.66 0.33 1.32 0.66 2 1 C-2.35114504 5.71374046 -2.35114504 5.71374046 -5.125 6.9375 C-7 7 -7 7 -10 5 C-8.38007835 4.13624104 -6.75388139 3.28424146 -5.125 2.4375 C-4.22007812 1.96183594 -3.31515625 1.48617187 -2.3828125 0.99609375 C-1.20332031 0.50302734 -1.20332031 0.50302734 0 0 Z " fill="#001C01" transform="translate(337,160)"/>
<path d="M0 0 C-0.66 1.32 -1.32 2.64 -2 4 C-2.66 4 -3.32 4 -4 4 C-4 3.34 -4 2.68 -4 2 C-9.94 2.495 -9.94 2.495 -16 3 C-15.67 2.34 -15.34 1.68 -15 1 C-13.14453125 0.5859375 -13.14453125 0.5859375 -10.8125 0.375 C-10.00554687 0.30152344 -9.19859375 0.22804687 -8.3671875 0.15234375 C-5.57206381 -0.02754045 -2.79984466 -0.07179089 0 0 Z " fill="#002501" transform="translate(196,137)"/>
<path d="M0 0 C0.33 1.32 0.66 2.64 1 4 C-1.31 4.66 -3.62 5.32 -6 6 C-6.66 5.34 -7.32 4.68 -8 4 C-5.37801226 1.84622436 -3.35595828 0.59927826 0 0 Z " fill="#021401" transform="translate(418,106)"/>
<path d="M0 0 C2.64 0 5.28 0 8 0 C8 0.66 8 1.32 8 2 C4.3558226 4.4294516 2.28758728 4.16179575 -2 4 C-2 3.34 -2 2.68 -2 2 C-1.34 2 -0.68 2 0 2 C0 1.34 0 0.68 0 0 Z " fill="#181A19" transform="translate(673,99)"/>
<path d="M0 0 C0.66 1.32 1.32 2.64 2 4 C0.71034824 5.37562854 -0.62689293 6.70766393 -2 8 C-2.66 8 -3.32 8 -4 8 C-4 8.66 -4 9.32 -4 10 C-4.66 10 -5.32 10 -6 10 C-4.34832443 6.4213696 -2.21713508 3.25179812 0 0 Z " fill="#001B01" transform="translate(307,84)"/>
<path d="M0 0 C3.3 0.33 6.6 0.66 10 1 C7.13771795 2.43114103 5.00359672 3.40726882 2 4.1875 C1.34 4.36667969 0.68 4.54585938 0 4.73046875 C-2.26540976 5.03576811 -3.835092 4.68136613 -6 4 C-4.02 3.67 -2.04 3.34 0 3 C0 2.01 0 1.02 0 0 Z " fill="#001E00" transform="translate(652,66)"/>
<path d="M0 0 C1.65 0 3.3 0 5 0 C5.33 1.32 5.66 2.64 6 4 C4.02 4 2.04 4 0 4 C-0.33 4.66 -0.66 5.32 -1 6 C-1.99 5.34 -2.98 4.68 -4 4 C-2.68 3.67 -1.36 3.34 0 3 C0 2.01 0 1.02 0 0 Z " fill="#0A120C" transform="translate(620,265)"/>
<path d="M0 0 C0.99 0.33 1.98 0.66 3 1 C-1.97504047 4.24900602 -4.88225104 5.49940808 -11 5 C-10.360625 4.71125 -9.72125 4.4225 -9.0625 4.125 C-6.84793921 3.17176549 -6.84793921 3.17176549 -6 1 C-4.7934375 1.0309375 -4.7934375 1.0309375 -3.5625 1.0625 C-1.06645115 1.29633621 -1.06645115 1.29633621 0 0 Z " fill="#001D00" transform="translate(445,221)"/>
<path d="M0 0 C0.66 0 1.32 0 2 0 C2 3.96 2 7.92 2 12 C1.01 12 0.02 12 -1 12 C-0.67 8.04 -0.34 4.08 0 0 Z " fill="#11120F" transform="translate(505,175)"/>
<path d="M0 0 C1.65 0 3.3 0 5 0 C8.22265625 5.2734375 8.22265625 5.2734375 9 7 C8.67 7.66 8.34 8.32 8 9 C6.66368764 7.6905332 5.33102075 6.37734515 4 5.0625 C3.2575 4.33160156 2.515 3.60070312 1.75 2.84765625 C0 1 0 1 0 0 Z " fill="#011E00" transform="translate(592,137)"/>
<path d="M0 0 C0.33 0 0.66 0 1 0 C1.95261487 4.76307437 2.08333357 9.1666528 2 14 C-0.21462117 12.23995897 -0.94503183 11.40964372 -1.328125 8.5546875 C-1.30234375 7.67039062 -1.2765625 6.78609375 -1.25 5.875 C-1.23453125 4.98554687 -1.2190625 4.09609375 -1.203125 3.1796875 C-1 1 -1 1 0 0 Z " fill="#040B09" transform="translate(457,82)"/>
<path d="M0 0 C1.051875 0.309375 2.10375 0.61875 3.1875 0.9375 C6.12752396 1.75685094 9.00161623 2.45483931 12 3 C12 3.99 12 4.98 12 6 C7.24518354 5.42365861 4.02951788 3.44931479 0 1 C0 0.67 0 0.34 0 0 Z " fill="#001901" transform="translate(71,70)"/>
<path d="M0 0 C0.33 0 0.66 0 1 0 C0.88590407 1.45922693 0.75834456 2.91740598 0.625 4.375 C0.55539063 5.18710937 0.48578125 5.99921875 0.4140625 6.8359375 C0 9 0 9 -2 11 C-2.69748583 12.31747324 -3.36959957 13.64914193 -4 15 C-4 12.69 -4 10.38 -4 8 C-3.01 7.67 -2.02 7.34 -1 7 C-0.67 4.69 -0.34 2.38 0 0 Z " fill="#002102" transform="translate(225,39)"/>
<path d="M0 0 C5.28 0.99 10.56 1.98 16 3 C16 3.33 16 3.66 16 4 C10.72 4 5.44 4 0 4 C0 2.68 0 1.36 0 0 Z " fill="#002803" transform="translate(131,274)"/>
<path d="M0 0 C4.98862849 -0.29344873 7.96229058 -0.05887078 12 3 C12 3.33 12 3.66 12 4 C3.42857143 3.28571429 3.42857143 3.28571429 0 0 Z " fill="#001B00" transform="translate(551,207)"/>
<path d="M0 0 C-0.66 1.32 -1.32 2.64 -2 4 C-5.3 4 -8.6 4 -12 4 C-12.33 3.34 -12.66 2.68 -13 2 C-12.06027344 1.90912109 -12.06027344 1.90912109 -11.1015625 1.81640625 C-9.87566406 1.69072266 -9.87566406 1.69072266 -8.625 1.5625 C-7.81289063 1.48128906 -7.00078125 1.40007812 -6.1640625 1.31640625 C-3.85304959 0.97851447 -2.33455672 0 0 0 Z " fill="#001E00" transform="translate(327,166)"/>
<path d="M0 0 C1.98 0.66 3.96 1.32 6 2 C6 4.64 6 7.28 6 10 C3.38275905 7.63202009 1.67138271 5.10399646 0 2 C0 1.34 0 0.68 0 0 Z " fill="#021C02" transform="translate(342,120)"/>
<path d="M0 0 C2.20914 3.31371 2.22481553 4.3446021 2.125 8.1875 C2.10695312 9.08855469 2.08890625 9.98960938 2.0703125 10.91796875 C2.03550781 11.94857422 2.03550781 11.94857422 2 13 C0.04542563 10.80926883 -0.98023653 9.62827019 -1.07421875 6.640625 C-0.94660156 5.85171875 -0.81898438 5.0628125 -0.6875 4.25 C-0.56761719 3.45078125 -0.44773438 2.6515625 -0.32421875 1.828125 C-0.21722656 1.22484375 -0.11023438 0.6215625 0 0 Z " fill="#031F05" transform="translate(145,112)"/>
<path d="M0 0 C1.32 1.32 2.64 2.64 4 4 C3.67 4.99 3.34 5.98 3 7 C2.93197033 8.72795352 2.91504355 10.45835365 2.9375 12.1875 C2.95103516 13.53908203 2.95103516 13.53908203 2.96484375 14.91796875 C2.97644531 15.60503906 2.98804688 16.29210937 3 17 C2.67 17 2.34 17 2 17 C1.34 11.39 0.68 5.78 0 0 Z " fill="#002C02" transform="translate(470,47)"/>
<path d="M0 0 C1.32 0 2.64 0 4 0 C3.67 2.97 3.34 5.94 3 9 C2.67 8.01 2.34 7.02 2 6 C1.34 6 0.68 6 0 6 C0 4.02 0 2.04 0 0 Z " fill="#0B0C0A" transform="translate(451,139)"/>
<path d="M0 0 C-2.31 0.66 -4.62 1.32 -7 2 C-6.67 2.66 -6.34 3.32 -6 4 C-8.97 3.67 -11.94 3.34 -15 3 C-5 -2 -5 -2 0 0 Z " fill="#002302" transform="translate(133,23)"/>
<path d="M0 0 C0 0.99 0 1.98 0 3 C1.65 3 3.3 3 5 3 C5 3.99 5 4.98 5 6 C1.08788267 4.84414715 -1.8745041 3.64465038 -5 1 C-3 0 -3 0 0 0 Z " fill="#011601" transform="translate(118,298)"/>
<path d="M0 0 C1.65 0 3.3 0 5 0 C5 0.66 5 1.32 5 2 C4.34 2 3.68 2 3 2 C2.87625 2.78375 2.7525 3.5675 2.625 4.375 C2 7 2 7 0 9 C0 6 0 3 0 0 Z " fill="#0A070D" transform="translate(694,280)"/>
<path d="M0 0 C0.66 0 1.32 0 2 0 C2 1.98 2 3.96 2 6 C2.99 6.33 3.98 6.66 5 7 C5.33 7.99 5.66 8.98 6 10 C5.01 10.33 4.02 10.66 3 11 C0 4.5 0 4.5 0 0 Z " fill="#001B00" transform="translate(87,268)"/>
<path d="M0 0 C0 4.0333534 -1.60879918 5.83517538 -4 9 C-4.66 9 -5.32 9 -6 9 C-6.33 9.66 -6.66 10.32 -7 11 C-7.66 10.34 -8.32 9.68 -9 9 C-7.6078125 7.88625 -7.6078125 7.88625 -6.1875 6.75 C-3.72873042 4.70974439 -1.78352451 2.67528677 0 0 Z " fill="#002000" transform="translate(180,257)"/>
<path d="M0 0 C0.33 0.66 0.66 1.32 1 2 C0.328125 3.91015625 0.328125 3.91015625 -0.75 6.0625 C-1.09546875 6.77535156 -1.4409375 7.48820313 -1.796875 8.22265625 C-3 10 -3 10 -6 11 C-4.54955729 6.89041233 -2.48889248 3.56741255 0 0 Z " fill="#002000" transform="translate(100,223)"/>
<path d="M0 0 C2.31 0.33 4.62 0.66 7 1 C6.67 1.99 6.34 2.98 6 4 C3.69 4.33 1.38 4.66 -1 5 C-1 4.01 -1 3.02 -1 2 C-0.01 2 0.98 2 2 2 C1.34 1.34 0.68 0.68 0 0 Z " fill="#141E1B" transform="translate(189,119)"/>
<path d="M0 0 C0.33 0.66 0.66 1.32 1 2 C1.66 2.33 2.32 2.66 3 3 C1.515 5.475 1.515 5.475 0 8 C-0.99 7.67 -1.98 7.34 -3 7 C-1.125 2.25 -1.125 2.25 0 0 Z " fill="#031C05" transform="translate(292,106)"/>
<path d="M0 0 C1.98 0.99 1.98 0.99 4 2 C3.34 4.31 2.68 6.62 2 9 C-0.29013653 5.5647952 -0.17842973 4.014669 0 0 Z " fill="#020E07" transform="translate(473,210)"/>
<path d="M0 0 C-2.9806408 1.65591156 -5.65469056 2.39955984 -9 3 C-9.99 3.33 -10.98 3.66 -12 4 C-12.33 3.01 -12.66 2.02 -13 1 C-8.61414671 0.29826347 -4.44209357 -0.10834375 0 0 Z " fill="#1E201A" transform="translate(173,160)"/>
<path d="M0 0 C0 0.66 0 1.32 0 2 C-4.29 1.67 -8.58 1.34 -13 1 C-13 0.67 -13 0.34 -13 0 C-8.37078475 -1.0161692 -4.65537393 -0.83796731 0 0 Z " fill="#001E00" transform="translate(172,142)"/>
<path d="M0 0 C0.91007813 0.00902344 1.82015625 0.01804687 2.7578125 0.02734375 C3.45648437 0.03894531 4.15515625 0.05054687 4.875 0.0625 C4.875 0.3925 4.875 0.7225 4.875 1.0625 C1.79882812 1.35546875 1.79882812 1.35546875 -1.27734375 1.6484375 C-1.88707031 1.78507812 -2.49679687 1.92171875 -3.125 2.0625 C-3.455 2.7225 -3.785 3.3825 -4.125 4.0625 C-7.095 3.5675 -7.095 3.5675 -10.125 3.0625 C-6.25266576 0.48094384 -4.58963981 -0.05884154 0 0 Z " fill="#022505" transform="translate(683.125,95.9375)"/>
<path d="M0 0 C1.98 0.495 1.98 0.495 4 1 C4 1.99 4 2.98 4 4 C3.34 4 2.68 4 2 4 C1.67 4.99 1.34 5.98 1 7 C1 6.34 1 5.68 1 5 C0.34 5 -0.32 5 -1 5 C-0.67 3.35 -0.34 1.7 0 0 Z " fill="#0B250C" transform="translate(208,95)"/>
<path d="M0 0 C3.32637022 2.69277589 4.58473125 6.03724749 6 10 C5.67 10.99 5.34 11.98 5 13 C2.69559987 8.70543612 1.21815438 4.68520915 0 0 Z " fill="#002701" transform="translate(451,63)"/>
<path d="M0 0 C0.33 0 0.66 0 1 0 C1 1.65 1 3.3 1 5 C1.66 5.33 2.32 5.66 3 6 C2.01 6.66 1.02 7.32 0 8 C-0.66 7.67 -1.32 7.34 -2 7 C-1.125 2.25 -1.125 2.25 0 0 Z " fill="#001800" transform="translate(92,236)"/>
<path d="M0 0 C1.485 0.99 1.485 0.99 3 2 C5.62531524 2.16713569 5.62531524 2.16713569 8 2 C6.68 3.32 5.36 4.64 4 6 C2.62437146 4.71034824 1.29233607 3.37310707 0 2 C0 1.34 0 0.68 0 0 Z " fill="#002601" transform="translate(425,226)"/>
<path d="M0 0 C0.66 0.99 1.32 1.98 2 3 C1.01 3.33 0.02 3.66 -1 4 C-1.309375 4.639375 -1.61875 5.27875 -1.9375 5.9375 C-3.24625707 8.47802844 -4.45466064 8.85331176 -7 10 C-6.02223933 8.51990357 -5.0427506 7.04094856 -4.0625 5.5625 C-3.51722656 4.73878906 -2.97195313 3.91507813 -2.41015625 3.06640625 C-1 1 -1 1 0 0 Z " fill="#002602" transform="translate(346,150)"/>
<path d="M0 0 C1.23912545 3.57969574 0.95063395 6.35590321 0 10 C-0.99 10.66 -1.98 11.32 -3 12 C-2.68950274 10.56206608 -2.3765224 9.1246682 -2.0625 7.6875 C-1.88847656 6.88699219 -1.71445312 6.08648437 -1.53515625 5.26171875 C-1 3 -1 3 0 0 Z " fill="#002B00" transform="translate(278,133)"/>
<path d="M0 0 C-2.64 1.98 -5.28 3.96 -8 6 C-7.1875 3.0625 -7.1875 3.0625 -6 0 C-3 -1 -3 -1 0 0 Z " fill="#001B01" transform="translate(153,223)"/>
<path d="M0 0 C0.598125 0.804375 1.19625 1.60875 1.8125 2.4375 C3.80947276 5.22327984 3.80947276 5.22327984 7 6 C6.67 7.32 6.34 8.64 6 10 C4.99106869 8.90398831 3.99311775 7.79786082 3 6.6875 C2.1646875 5.76517578 2.1646875 5.76517578 1.3125 4.82421875 C0 3 0 3 0 0 Z " fill="#002801" transform="translate(585,127)"/>
<path d="M0 0 C0.66 0 1.32 0 2 0 C1.1875 2.9375 1.1875 2.9375 0 6 C-0.99 6.33 -1.98 6.66 -3 7 C-2.67 5.35 -2.34 3.7 -2 2 C-1.34 2 -0.68 2 0 2 C0 1.34 0 0.68 0 0 Z " fill="#192824" transform="translate(204,108)"/>
<path d="M0 0 C-1.0625 1.5625 -1.0625 1.5625 -3 3 C-6.6875 2.6875 -6.6875 2.6875 -10 2 C-6.16991045 -0.55339303 -4.41711378 -1.47237126 0 0 Z " fill="#001F00" transform="translate(646,109)"/>
<path d="M0 0 C1.17539996 0.92652701 2.34010577 1.86663387 3.5 2.8125 C4.1496875 3.33457031 4.799375 3.85664062 5.46875 4.39453125 C7 6 7 6 7 9 C0.90625 4.53125 0.90625 4.53125 0 0 Z " fill="#002500" transform="translate(337,76)"/>
<path d="M0 0 C0.99 0 1.98 0 3 0 C3 0.99 3 1.98 3 3 C4.65 3 6.3 3 8 3 C8 3.33 8 3.66 8 4 C0.57142857 4.28571429 0.57142857 4.28571429 -3 2 C-2.01 2 -1.02 2 0 2 C0 1.34 0 0.68 0 0 Z " fill="#001B01" transform="translate(86,74)"/>
<path d="M0 0 C2 0 2 0 3.6875 1.0625 C5 3 5 3 4.6875 6.6875 C4.460625 7.780625 4.23375 8.87375 4 10 C1.81024227 6.71536341 1.00193437 3.79303725 0 0 Z " fill="#002501" transform="translate(417,61)"/>
<path d="M0 0 C2.31 0.33 4.62 0.66 7 1 C5.35 2.32 3.7 3.64 2 5 C1.34 4.67 0.68 4.34 0 4 C0 2.68 0 1.36 0 0 Z " fill="#001400" transform="translate(185,292)"/>
<path d="M0 0 C2.97 0.33 5.94 0.66 9 1 C8.34 2.32 7.68 3.64 7 5 C3.34683329 3.75023244 2.21934164 3.32901247 0 0 Z " fill="#001301" transform="translate(101,291)"/>
<path d="M0 0 C0.66 0 1.32 0 2 0 C2.33 1.98 2.66 3.96 3 6 C2.01 6.33 1.02 6.66 0 7 C-0.93423645 3.98968256 -1.04449911 3.13349732 0 0 Z " fill="#161815" transform="translate(506,206)"/>
<path d="M0 0 C0.66 0.33 1.32 0.66 2 1 C-2.30769231 4.93846154 -2.30769231 4.93846154 -5.8125 5.25 C-6.534375 5.1675 -7.25625 5.085 -8 5 C-5.45378681 2.99940392 -3.01962385 1.20784954 0 0 Z " fill="#002C01" transform="translate(164,270)"/>
<path d="M0 0 C1.32 0.66 2.64 1.32 4 2 C-0.455 3.485 -0.455 3.485 -5 5 C-4.34 3.68 -3.68 2.36 -3 1 C-2.01 1.33 -1.02 1.66 0 2 C0 1.34 0 0.68 0 0 Z " fill="#001800" transform="translate(61,195)"/>
<path d="M0 0 C0.99 0 1.98 0 3 0 C3 2.31 3 4.62 3 7 C2.01 7 1.02 7 0 7 C0.33 6.34 0.66 5.68 1 5 C0.72057545 3.32345271 0.39171753 1.65391846 0 0 Z " fill="#050C07" transform="translate(252,149)"/>
<path d="M0 0 C0.99 0.33 1.98 0.66 3 1 C3 2.32 3 3.64 3 5 C1.35 5.33 -0.3 5.66 -2 6 C-1.34 4.02 -0.68 2.04 0 0 Z " fill="#001D01" transform="translate(281,127)"/>
</svg>
